<svg id="Layer_2" data-name="Layer 2" xmlns="http://www.w3.org/2000/svg" viewBox="0 0 569.05 665.41"><defs><style>.cls-1{stroke:#000;stroke-miterlimit:10;stroke-width:0.75px;}</style></defs><title>lined_dp</title><path class="cls-1" d="M278.63,478.19c-.13-1.19-1.13-8.19-1.71-11.77-1.87-12.93-3.55-24.46-3.82-26.19,0-.14-.17-.38-.26-.4-11.92-9.57-20.34-21.89-26-36a231.57,231.57,0,0,1-13.17-46.69c0-.3-.25-1.21-.26-1.27-.87-6.15-1.4-12.37-1.91-18.55a.5.5,0,0,0-1,0c0,9.69,2.83,24,2.93,24a230.67,230.67,0,0,0,13.15,44.48,85.49,85.49,0,0,0,25.6,34.76c1.13,7.81,3.61,25.39,3.78,26.12q.89,6.12,1.78,12.22c.37,4.92.49,9.88.8,14.7.6,9.24.59,18.7,3.51,27.57,5.32,16.17,11.73,32.47,22.53,45.82.4.5,1.1-.21.7-.7-10.94-13.55-17.75-30.5-22.79-47-2.73-9-2.5-18.81-3.1-28.09,0-.51-.07-1-.1-1.54Z" transform="translate(-80.43 -58.24)"/><path class="cls-1" d="M169.21,537.86A171.87,171.87,0,0,0,96.13,588c-.41.48.29,1.19.71.7a171.05,171.05,0,0,1,72.63-49.83C170.07,538.61,169.81,537.64,169.21,537.86Z" transform="translate(-80.43 -58.24)"/><path class="cls-1" d="M221.72,511.17a142.23,142.23,0,0,0-28.24,13.71c-.55.35,0,1.21.5.87a140.2,140.2,0,0,1,28-13.62C222.59,511.92,222.33,511,221.72,511.17Z" transform="translate(-80.43 -58.24)"/><path class="cls-1" d="M557.77,517.51q-17.74-6.72-35-14.62c-5.49-2.52-10.9-5.19-16.34-7.82-4.85-2.34-9.82-4.38-15.24-4.82-.64-.05-.64.95,0,1,6.17.51,11.71,3.19,17.18,5.89s11,5.3,16.52,7.82q16.08,7.28,32.6,13.51C558.1,518.7,558.36,517.73,557.77,517.51Z" transform="translate(-80.43 -58.24)"/><path class="cls-1" d="M648.89,565.71a210.47,210.47,0,0,0-37.49-22.78c-.58-.27-1.09.59-.51.86a211.19,211.19,0,0,1,37.5,22.79C648.9,567,649.4,566.1,648.89,565.71Z" transform="translate(-80.43 -58.24)"/><path class="cls-1" d="M594,535a105.66,105.66,0,0,1-14-6c-.58-.29-1.08.57-.51.86A106.75,106.75,0,0,0,593.78,536C594.39,536.16,594.65,535.2,594,535Z" transform="translate(-80.43 -58.24)"/><path class="cls-1" d="M130.71,574.25c-10,18.84-13.08,40.22-14,61.28,0,.64,1,.64,1,0,.93-20.88,4-42.09,13.89-60.77C131.88,574.19,131,573.69,130.71,574.25Z" transform="translate(-80.43 -58.24)"/><path class="cls-1" d="M153.75,577.78c-8.2,8.49-14.71,17.9-18.18,29.28a.5.5,0,0,0,1,.27c3.42-11.23,9.84-20.47,17.93-28.84C154.91,578,154.2,577.32,153.75,577.78Z" transform="translate(-80.43 -58.24)"/><path class="cls-1" d="M185.28,548.9a.51.51,0,0,0-.74-.3,118.37,118.37,0,0,0-26.16,21.46c-.43.47.27,1.18.71.71a116.93,116.93,0,0,1,25.33-20.91c.23,2.94-2.43,5.86-3.88,8.2s-2.84,4.63-4.2,7q-4.31,7.44-8.09,15.19A248.76,248.76,0,0,0,155.73,611c-.21.62.76.88,1,.27a246.58,246.58,0,0,1,14-33.73q4-7.89,8.54-15.46c1.54-2.56,3.22-5,4.75-7.6C185.07,552.68,185.78,551,185.28,548.9Z" transform="translate(-80.43 -58.24)"/><path class="cls-1" d="M236.16,169.8c-12.6,1.73-26.22-2.42-35-11.79-10.34-11-6.82-25.58-2.71-38.51.19-.62-.77-.88-1-.27-4.23,13.32-7.65,28.18,3,39.48,9.07,9.66,23,13.83,36,12C237.06,170.67,236.79,169.71,236.16,169.8Z" transform="translate(-80.43 -58.24)"/><path class="cls-1" d="M285.68,73c-7.31,2.62-14.51,5.53-21.56,8.79-6.52,3-13.82,5.91-18.76,11.31-4.5,4.92-7.8,11.27-10.17,17.46a39.78,39.78,0,0,0-2.72,19.67,27.34,27.34,0,0,0,9.5,17.63c.5.4,1.21-.3.71-.71-14.33-11.61-10-31.86-2-45.76a36.54,36.54,0,0,1,7.67-9.84c3.4-2.86,7.56-4.75,11.53-6.67A255.94,255.94,0,0,1,284.87,74.4a24.12,24.12,0,0,1-5.59,8c-.46.44.24,1.15.71.71A25.2,25.2,0,0,0,286,74.19a.4.4,0,0,0,0-.26C286.5,73.64,286.24,72.83,285.68,73Z" transform="translate(-80.43 -58.24)"/><path class="cls-1" d="M448.49,94.09c-10.32,1.19-20.85,1.45-31.1-.51a60.86,60.86,0,0,1-14.54-4.64c-4.63-2.18-8.62-5.56-13.33-7.55-9.09-3.84-20.63-1.81-29.91.34a178.12,178.12,0,0,0-30.42,10.49,228.84,228.84,0,0,0-32.72,17.5c-.54.35,0,1.21.5.86,18.2-11.69,38.3-21.38,59.25-27a90.89,90.89,0,0,1,16.51-3c5.86-.45,12.06-.48,17.46,2.14,4.34,2.1,8.13,5.16,12.53,7.2a62.28,62.28,0,0,0,13.17,4.31c10.71,2.25,21.78,2,32.6.79C449.12,95,449.13,94,448.49,94.09Z" transform="translate(-80.43 -58.24)"/><path class="cls-1" d="M481.77,119.69a.48.48,0,0,0-.27,0c-16.46,2.58-32.5-2.9-48.36-6.49a140.94,140.94,0,0,0-47.37-2.3,248.45,248.45,0,0,0-27.07,4.76c-.62.14-.36,1.11.27,1,16.29-3.7,33-6.29,49.72-5.71a131.35,131.35,0,0,1,24.64,3.35c7.73,1.77,15.37,3.93,23.16,5.41,8.12,1.55,16.34,2.25,24.55,1.07-1,2.87-4.83,4.41-7.38,5.51-.59.25-.08,1.11.5.86,3-1.29,7.41-3.13,8-6.78A.54.54,0,0,0,481.77,119.69Z" transform="translate(-80.43 -58.24)"/><path class="cls-1" d="M413.36,74c-7-1.76-12.54-6.33-18.77-9.65s-13-4.69-19.92-5.23a175.53,175.53,0,0,0-48.07,3.29c-.63.13-.36,1.09.27,1a173.55,173.55,0,0,1,47.8-3.26c7.52.6,14.61,2.29,21.18,6.07,5.62,3.24,10.86,7.16,17.24,8.77A.5.5,0,0,0,413.36,74Z" transform="translate(-80.43 -58.24)"/><path class="cls-1" d="M466.25,106.74a65.66,65.66,0,0,0-7.45-12.69c-.38-.51-1.25,0-.86.51a66.36,66.36,0,0,1,7.44,12.68C465.65,107.83,466.51,107.32,466.25,106.74Z" transform="translate(-80.43 -58.24)"/><path class="cls-1" d="M487.81,132.63c-.22-.6-1.18-.34-1,.27a83,83,0,0,1,4.22,16.94c.09.63,1.06.36,1-.27A83.86,83.86,0,0,0,487.81,132.63Z" transform="translate(-80.43 -58.24)"/><path class="cls-1" d="M252.19,194.5c-6.76,2-11.25,7.58-15.39,13-.4.51.47,1,.86.51,4-5.17,8.3-10.55,14.79-12.5A.5.5,0,0,0,252.19,194.5Z" transform="translate(-80.43 -58.24)"/><path class="cls-1" d="M252.4,200.16a33.41,33.41,0,0,0-11.86,11.41c-.34.55.53,1.05.87.51A32.3,32.3,0,0,1,252.9,201,.5.5,0,0,0,252.4,200.16Z" transform="translate(-80.43 -58.24)"/><path class="cls-1" d="M248.27,214.58a62.37,62.37,0,0,0-23.17,12.08c-.5.41.21,1.11.7.7a61.52,61.52,0,0,1,22.73-11.82A.5.5,0,0,0,248.27,214.58Z" transform="translate(-80.43 -58.24)"/><path class="cls-1" d="M238.6,226.57l-7.41,5.29c-.52.37,0,1.24.5.87l7.42-5.3C239.62,227.06,239.13,226.19,238.6,226.57Z" transform="translate(-80.43 -58.24)"/><path class="cls-1" d="M242.63,223.39a70.31,70.31,0,0,0-14.7,41,.5.5,0,0,0,1,0,69.19,69.19,0,0,1,14.41-40.33C243.72,223.59,243,222.88,242.63,223.39Z" transform="translate(-80.43 -58.24)"/><path class="cls-1" d="M218,185.89a23.79,23.79,0,0,0-14.8,5.85.4.4,0,0,0-.12.49c-.14.39.26.89.7.61a40.93,40.93,0,0,1,6.94-3.48.52.52,0,0,0,0-1,23,23,0,0,1,7.3-1.49C218.67,186.86,218.67,185.86,218,185.89Z" transform="translate(-80.43 -58.24)"/><path class="cls-1" d="M217,192.27a39.79,39.79,0,0,0-16.72,20.15c-.2.55.57.8.88.4a.51.51,0,0,0,.15-.07q5.85-4,11.89-7.7A171.77,171.77,0,0,0,206,227.72l-.14.16c-.43.48.28,1.19.71.71l.06-.07a.44.44,0,0,0,.28-.32h0a76.61,76.61,0,0,0,6.39-8.41c.35-.54-.51-1-.86-.51a75.66,75.66,0,0,1-4.95,6.7,173.82,173.82,0,0,1,7.15-21.78.39.39,0,0,0-.12-.49.45.45,0,0,0-.67-.2q-6.08,3.7-12,7.71a38.63,38.63,0,0,1,15.67-18.08A.5.5,0,0,0,217,192.27Z" transform="translate(-80.43 -58.24)"/><path class="cls-1" d="M209.58,250.9l-3.48,6a112.52,112.52,0,0,1,3.25-15.62.5.5,0,0,0-1-.27,114.44,114.44,0,0,0-3.55,17.78.45.45,0,0,0,.07.29.5.5,0,0,0,.93.26l4.61-7.91A.5.5,0,0,0,209.58,250.9Z" transform="translate(-80.43 -58.24)"/><path class="cls-1" d="M213.32,253.34q-1.31,9.37-2.6,18.75a13.57,13.57,0,0,1-3.22-8.86.5.5,0,0,0-1,0,14.73,14.73,0,0,0,3.76,9.87A.46.46,0,0,0,211,273c.26.09.56,0,.6-.32l2.64-19C214.37,253,213.41,252.7,213.32,253.34Z" transform="translate(-80.43 -58.24)"/><path class="cls-1" d="M214.91,275.85c-2,4.49-3.83,9.24-2.28,14.12.19.62,1.16.35,1-.26-1.46-4.63.33-9.12,2.18-13.35C216,275.77,215.16,275.26,214.91,275.85Z" transform="translate(-80.43 -58.24)"/><path class="cls-1" d="M225.76,300.58a6.64,6.64,0,0,0-6-3.53c-2.63,0-4.31,1.64-5.73,3.59a20.55,20.55,0,0,1-.45-3.76c0-.64-1-.64-1,0a22,22,0,0,0,.74,5.1.51.51,0,0,0,.92.12c1.35-2.05,2.84-4,5.52-4.05a5.59,5.59,0,0,1,5.09,3C225.2,301.65,226.06,301.15,225.76,300.58Z" transform="translate(-80.43 -58.24)"/><path class="cls-1" d="M250,232.86c-1.55,10.59-8,19.42-11.9,29.18a82.08,82.08,0,0,0-5.7,32.36c0,.64,1,.64,1,0a81.13,81.13,0,0,1,6-32.94c3.89-9.45,10.05-18,11.56-28.33C251.06,232.5,250.1,232.23,250,232.86Z" transform="translate(-80.43 -58.24)"/><path class="cls-1" d="M296.69,170.13c-11.33-2.69-26.69-5.55-34.85,5.37-8.28,11.07-.94,26.16-6,38.25-.25.6.72.86,1,.27,4.74-11.4-1.35-24.6,4.39-35.67,6.74-13,23.67-10,35.19-7.25C297.05,171.25,297.32,170.28,296.69,170.13Z" transform="translate(-80.43 -58.24)"/><path class="cls-1" d="M346.84,170.61c-8,.38-15.48-2.45-23.06-4.62-7.17-2.05-14.45-3.14-21.87-1.86-.63.11-.36,1.08.27,1,8.17-1.42,16.08.26,23.9,2.61,6.79,2,13.58,4.24,20.76,3.9C347.48,171.58,347.49,170.58,346.84,170.61Z" transform="translate(-80.43 -58.24)"/><path class="cls-1" d="M383,145a108.61,108.61,0,0,1-33.77,10.47c-.63.09-.36,1.06.27,1a109.54,109.54,0,0,0,34-10.58C384,145.61,383.52,144.74,383,145Z" transform="translate(-80.43 -58.24)"/><path class="cls-1" d="M356.25,136.16q-5.89,2.42-12,4.24a.5.5,0,0,0,.27,1c4.07-1.21,8.06-2.63,12-4.23C357.1,136.89,356.85,135.92,356.25,136.16Z" transform="translate(-80.43 -58.24)"/><path class="cls-1" d="M276.07,147a25.45,25.45,0,0,1-6.86-3.71,11.87,11.87,0,0,1-3.72-7c-1.2-5.58-1.3-11.89,3.12-16.12.47-.44-.24-1.15-.7-.7-4.69,4.48-4.67,11.15-3.39,17.09a12.77,12.77,0,0,0,4,7.46,26.79,26.79,0,0,0,7.3,4C276.4,148.25,276.65,147.28,276.07,147Z" transform="translate(-80.43 -58.24)"/><path class="cls-1" d="M293.43,141.1l-.71,4.94c-.09.63.88.9,1,.27.23-1.65.47-3.29.7-4.94C294.48,140.74,293.52,140.47,293.43,141.1Z" transform="translate(-80.43 -58.24)"/><path class="cls-1" d="M223.37,156.5c-5.19-3-5.62-9.22-5.78-14.58,0-.64-1-.64-1,0,.18,5.74.74,12.29,6.27,15.44A.5.5,0,0,0,223.37,156.5Z" transform="translate(-80.43 -58.24)"/><path class="cls-1" d="M219.66,121.34q-.87,3-1.76,6a.5.5,0,0,0,1,.26l1.77-6A.5.5,0,0,0,219.66,121.34Z" transform="translate(-80.43 -58.24)"/><path class="cls-1" d="M396.87,171.51a55.87,55.87,0,0,0-10-5.35c-.6-.24-.86.73-.27,1a55,55,0,0,1,9.77,5.24C396.9,172.73,397.4,171.87,396.87,171.51Z" transform="translate(-80.43 -58.24)"/><path class="cls-1" d="M405.69,162.33l-6-2.82c-.58-.27-1.08.59-.5.86l6,2.83C405.77,163.47,406.28,162.61,405.69,162.33Z" transform="translate(-80.43 -58.24)"/><path class="cls-1" d="M422.71,164.57,417.07,160c-.49-.4-1.21.3-.71.71l5.64,4.6C422.49,165.68,423.21,165,422.71,164.57Z" transform="translate(-80.43 -58.24)"/><path class="cls-1" d="M369.34,173.27l-5.29-2.47c-.58-.27-1.09.59-.51.87l5.3,2.47C369.42,174.41,369.92,173.55,369.34,173.27Z" transform="translate(-80.43 -58.24)"/><path class="cls-1" d="M382.4,170.45l-4.94-3.53c-.53-.37-1,.49-.51.86l4.94,3.53C382.42,171.69,382.92,170.82,382.4,170.45Z" transform="translate(-80.43 -58.24)"/><path class="cls-1" d="M361.93,175.39l-7.41-5.29c-.53-.38-1,.49-.51.86l7.41,5.3C362,176.63,362.45,175.76,361.93,175.39Z" transform="translate(-80.43 -58.24)"/><path class="cls-1" d="M405.81,171.22a57,57,0,0,0-10-7.46.5.5,0,0,0-.5.86,55.9,55.9,0,0,1,9.8,7.31C405.57,172.37,406.28,171.66,405.81,171.22Z" transform="translate(-80.43 -58.24)"/><path class="cls-1" d="M368.3,167.24a78.71,78.71,0,0,0-10.38-4.59c-.6-.22-.86.74-.26,1a78.34,78.34,0,0,1,10.14,4.49C368.36,168.41,368.87,167.54,368.3,167.24Z" transform="translate(-80.43 -58.24)"/><path class="cls-1" d="M419.64,170.28l-1.41-2.12c-.36-.53-1.23,0-.87.5l1.41,2.12C419.13,171.31,420,170.81,419.64,170.28Z" transform="translate(-80.43 -58.24)"/><path class="cls-1" d="M438.39,179.22q-.87-2.82-1.76-5.65c-.19-.61-1.16-.35-1,.27l1.77,5.65C437.62,180.1,438.59,179.84,438.39,179.22Z" transform="translate(-80.43 -58.24)"/><path class="cls-1" d="M477.42,259.52c-18.37-16.17-34.84-39.8-27.55-65.47a.5.5,0,0,0-1-.27c-7.39,26,9.16,50,27.8,66.44C477.19,260.65,477.9,259.94,477.42,259.52Z" transform="translate(-80.43 -58.24)"/><path class="cls-1" d="M469.8,308.35c-1.47,8-3,16.1-5.75,23.8a58.41,58.41,0,0,1-14.37,22c-5.77,5.74-11.67,11.18-16.19,18a69.76,69.76,0,0,0-9.56,22c-.15.62.82.89,1,.26a68.75,68.75,0,0,1,10.16-22.79c5-7.29,11.74-12.88,17.78-19.26,11.47-12.14,15-27.79,17.92-43.74C470.88,308,469.92,307.72,469.8,308.35Z" transform="translate(-80.43 -58.24)"/><path class="cls-1" d="M258,369.87a51.87,51.87,0,0,1-15.56-20.28c-.26-.59-1.12-.08-.86.51a52.52,52.52,0,0,0,15.71,20.48C257.76,371,258.47,370.27,258,369.87Z" transform="translate(-80.43 -58.24)"/><path class="cls-1" d="M377.34,448.52q-9.78-3.81-19.77-7.06c-.61-.2-.87.76-.26,1q10,3.25,19.76,7.06C377.67,449.72,377.93,448.75,377.34,448.52Z" transform="translate(-80.43 -58.24)"/><path class="cls-1" d="M356,404.38A76.91,76.91,0,0,0,334.38,408c-.62.19-.35,1.15.26,1A76.15,76.15,0,0,1,356,405.38.5.5,0,0,0,356,404.38Z" transform="translate(-80.43 -58.24)"/><path class="cls-1" d="M360.84,439A242.09,242.09,0,0,0,335,444.13c-4.17,1.08-8.27,2.51-12.47,3.47-3.74.85-7.82,1-11-1.16.29-.06.58-.1.86-.17a.5.5,0,0,0-.26-1c-.55.12-1.1.22-1.65.31a9.93,9.93,0,0,1-.72-.73c-.43-.48-1.13.23-.71.71l.16.17c-3.62.36-7.36.12-10.8,1.39-3.72,1.37-6,4.67-9,7.09l-.09.09a.4.4,0,0,0,0,.56.46.46,0,0,0,.42.25A.45.45,0,0,0,290,455l.06,0c3.36-2.71,5.75-6.26,10.16-7.35,3.25-.79,6.62-.6,9.93-1,5.91,5.08,14.81,1.26,21.41-.56a238.43,238.43,0,0,1,29.57-6.16C361.74,439.84,361.47,438.87,360.84,439Z" transform="translate(-80.43 -58.24)"/><path class="cls-1" d="M306.15,465.54a92.38,92.38,0,0,1-10.92-7.1c-.52-.38-1,.48-.51.87a94,94,0,0,0,10.92,7.09C306.21,466.71,306.71,465.85,306.15,465.54Z" transform="translate(-80.43 -58.24)"/><path class="cls-1" d="M322.32,61.91A93.54,93.54,0,0,0,297.38,78.7c-.47.44.24,1.15.71.71a92.55,92.55,0,0,1,23.62-16.09,19.11,19.11,0,0,1-3.68,5.8c-.43.47.27,1.18.71.71a20.51,20.51,0,0,0,4.27-7,.71.71,0,0,0-.69-.88Z" transform="translate(-80.43 -58.24)"/><path class="cls-1" d="M516.31,225.34A102.24,102.24,0,0,1,516,212c.17-3.75.35-7.68-1.08-11.24s-4.59-6.18-6.89-9.31a13.46,13.46,0,0,1-.9-14.83.5.5,0,0,0-.86-.51c-3.47,6.13-2,12.59,2.42,17.73,2.93,3.44,5.64,6.43,6.23,11.1.54,4.25-.13,8.58,0,12.84.2,9.06,1.56,17.9.73,27a123.28,123.28,0,0,1-5.8,26.56c-2.31,7.11-5,14.07-7.92,21,.06-1.65.09-3.29.06-4.95,0-.64-1-.64-1,0q.07,3.84-.2,7.66-1.14,2.72-2.29,5.42c-.25.59.61,1.1.86.51l1.14-2.69q-.37,3.42-1.07,6.8c-.25,1.23-.54,2.46-.85,3.68-.25,1-.1,1.87-1.11,1.63s-.92-1-1.14-1.81a52.53,52.53,0,0,1-1.36-9.91c0-.64-1-.64-1,0a59.09,59.09,0,0,0,1.4,10.18c.38,1.58,1,3.37,2.94,3.27a.53.53,0,0,0,.48-.36,81,81,0,0,0,3-16.44c6-14.24,11.68-28.76,14.09-44.08A107.66,107.66,0,0,0,516.31,225.34Z" transform="translate(-80.43 -58.24)"/><path class="cls-1" d="M449.89,448.07c-.11-.63-1.08-.36-1,.27a69.27,69.27,0,0,1-1.32,30.28c-2.55,9.3-7.07,17.88-11.59,26.35l-14.73,27.52c-4.48,8.38-8.6,17.16-13.91,25.06A47,47,0,0,1,398,567.87c-3.48,2.83-7.28,5.24-10.81,8a85.85,85.85,0,0,0-16,16.7c-9.72,13.08-16.59,28-24.7,42.05-4.66,8.07-10.18,15.51-15.19,23.34-4.92,7.67-9,16.06-8.74,25.38,0,.64,1,.64,1,0-.26-9.15,3.78-17.35,8.6-24.87,4.59-7.17,9.68-14,14-21.31,8.19-13.91,15-28.71,24.31-41.91a87.46,87.46,0,0,1,16.77-18.17c7-5.55,14.39-9.91,19.73-17.27,5.52-7.6,9.54-16.35,14-24.61l14.76-27.61c4.87-9.09,9.89-18.26,12.69-28.24A70.6,70.6,0,0,0,449.89,448.07Z" transform="translate(-80.43 -58.24)"/><path class="cls-1" d="M276.06,555c-3-16.86-8.5-33.36-8.22-50.65A93.78,93.78,0,0,1,272.76,476c.2-.61-.77-.88-1-.27a97.82,97.82,0,0,0-3.21,48.47c1.48,8.33,3.62,16.52,5.32,24.8,1.83,8.9,3.11,17.9,4.09,26.93,1.09,9.9,1.82,19.83,2.56,29.76,0,.64,1.05.64,1,0C280.29,588.75,279,571.75,276.06,555Z" transform="translate(-80.43 -58.24)"/><path class="cls-1" d="M332.83,643.92A340.11,340.11,0,0,1,314,603.23q-1.91-5-3.67-10c-.62-1.78-1.19-4.55-3.16-5.39a4.14,4.14,0,0,0-2.34-.08,10,10,0,0,1-6.59-.83c-3.35-1.73-5.57-4.95-7.67-8-.37-.53-1.23,0-.86.5,3.08,4.43,7,9.62,13,9.61,1.94,0,4.14-1.15,5.42,1.08a27.59,27.59,0,0,1,1.74,4.65q1.85,5.25,3.88,10.44A341,341,0,0,0,332,644.42C332.27,645,333.14,644.48,332.83,643.92Z" transform="translate(-80.43 -58.24)"/><path class="cls-1" d="M319.66,685.26A85.51,85.51,0,0,1,286,643.66c-.23-.6-1.2-.34-1,.27a86.6,86.6,0,0,0,34.12,42.19C319.7,686.47,320.2,685.6,319.66,685.26Z" transform="translate(-80.43 -58.24)"/><path class="cls-1" d="M438.25,566.3a234,234,0,0,1-75.18,94.15,230.38,230.38,0,0,1-29.14,18.29c-.57.31-.07,1.17.5.87a234.82,234.82,0,0,0,88.4-82.05,230.45,230.45,0,0,0,16.28-30.75C439.36,566.22,438.5,565.71,438.25,566.3Z" transform="translate(-80.43 -58.24)"/><path class="cls-1" d="M414.84,247.33Q394.77,252.73,375,259c-.61.19-.35,1.15.27,1Q395,253.7,415.1,248.3A.5.5,0,0,0,414.84,247.33Z" transform="translate(-80.43 -58.24)"/><path class="cls-1" d="M321.91,257.65l-27.18-7.06a.5.5,0,0,0-.26,1l27.17,7.06A.5.5,0,0,0,321.91,257.65Z" transform="translate(-80.43 -58.24)"/><path class="cls-1" d="M265.07,252.33a116.56,116.56,0,0,0-12.7,6.71c-.55.33-.05,1.2.5.86a114.91,114.91,0,0,1,12.71-6.7C266.16,252.93,265.65,252.07,265.07,252.33Z" transform="translate(-80.43 -58.24)"/><path class="cls-1" d="M447.94,257.54l-10.23-3.2c-.62-.19-.88.78-.27,1l10.23,3.2C448.29,258.7,448.55,257.74,447.94,257.54Z" transform="translate(-80.43 -58.24)"/><path class="cls-1" d="M277.68,245.56l-6.36.35c-.64,0-.64,1,0,1l6.36-.35C278.32,246.52,278.32,245.52,277.68,245.56Z" transform="translate(-80.43 -58.24)"/><path class="cls-1" d="M438,252.64a86.61,86.61,0,0,1-11.17-3.84c-.59-.24-1.1.62-.5.87a87.8,87.8,0,0,0,11.41,3.93A.5.5,0,0,0,438,252.64Z" transform="translate(-80.43 -58.24)"/><path class="cls-1" d="M345.67,289.34q-1.31,9.38-1.81,18.84c0,.64,1,.64,1,0q.48-9.33,1.78-18.58C346.73,289,345.76,288.7,345.67,289.34Z" transform="translate(-80.43 -58.24)"/><path class="cls-1" d="M338.24,356.53c-.24,2.35-.48,4.71-.71,7.06-.06.64.94.63,1,0,.23-2.35.47-4.71.71-7.06C339.3,355.89,338.3,355.89,338.24,356.53Z" transform="translate(-80.43 -58.24)"/><path class="cls-1" d="M313.33,284.9c-2.85,1.29-6.94,2.78-10.11,2.26-1.05-.17-.92-.07-.64-.94.15-.45.51-.9.68-1.34a7.6,7.6,0,0,0,.45-3c0-.64-1-.64-1,0,.05,1.88-.62,2.91-1.42,4.44-.33.63-.39.63-.28,1.34a.48.48,0,0,0,.35.35c3.79,1.14,9.05-.67,12.47-2.21C314.42,285.5,313.91,284.64,313.33,284.9Z" transform="translate(-80.43 -58.24)"/><path class="cls-1" d="M283.61,287.91a5.37,5.37,0,0,1-1.69-2.82c-.2-.6-1.17-.34-1,.27a8.41,8.41,0,0,0,1.24,2.53c-1.05-.21-2.63-.77-3-.86l-3.89-1a.5.5,0,0,0-.27,1q2.7.68,5.4,1.32c.83.2,2.37.95,3.17.42A.51.51,0,0,0,283.61,287.91Z" transform="translate(-80.43 -58.24)"/><path class="cls-1" d="M290.94,269.74a40.28,40.28,0,0,0-27.75,9.66c-.49.42.22,1.12.71.71a39.16,39.16,0,0,1,27-9.37C291.58,270.77,291.58,269.77,290.94,269.74Z" transform="translate(-80.43 -58.24)"/><path class="cls-1" d="M316.79,278.11a23.66,23.66,0,0,0-6.87-5.67c-.55-.34-1.05.52-.51.86a22.22,22.22,0,0,1,6.51,5.32C316.3,279.13,317.17,278.63,316.79,278.11Z" transform="translate(-80.43 -58.24)"/><path class="cls-1" d="M294.37,284.88a3,3,0,0,1-3.41,0c-.79-.81-.37-2.12-.1-3.05a.5.5,0,0,0-1-.27c-.41,1.42-.75,3.3.68,4.29a3.43,3.43,0,0,0,2.3.5,3.27,3.27,0,0,0,2.21-.74C295.51,285.1,294.81,284.4,294.37,284.88Z" transform="translate(-80.43 -58.24)"/><path class="cls-1" d="M267.34,284.55l-.48.63a.39.39,0,0,0-.09.21,25.53,25.53,0,0,1-3.44,4c-.47.44.24,1.14.71.7a25.65,25.65,0,0,0,2.84-3.15.45.45,0,0,0,.25-.32c.38-.51.74-1,1.07-1.55S267.72,284.05,267.34,284.55Z" transform="translate(-80.43 -58.24)"/><path class="cls-1" d="M271.71,283.46a29.51,29.51,0,0,1-2,5c-.29.57.58,1.08.86.5a30.06,30.06,0,0,0,2.06-5.26A.5.5,0,0,0,271.71,283.46Z" transform="translate(-80.43 -58.24)"/><path class="cls-1" d="M275.82,281.41a15.16,15.16,0,0,1-1.59,3.67.5.5,0,0,0,.87.51,16.32,16.32,0,0,0,1.68-3.91A.5.5,0,0,0,275.82,281.41Z" transform="translate(-80.43 -58.24)"/><path class="cls-1" d="M280.32,279.88c-.2.92-.41,1.84-.61,2.76-.14.63.82.9,1,.27.21-.92.41-1.85.62-2.77C281.43,279.51,280.46,279.25,280.32,279.88Z" transform="translate(-80.43 -58.24)"/><path class="cls-1" d="M398.92,285.91c-1.56-1.19-1-3.29-.55-4.88.19-.62-.77-.88-1-.27-.52,1.67-.8,3.49,0,4.92-1.84-.25-3.7-.43-5.56-.5a.5.5,0,0,0,0,1,55,55,0,0,1,6.65.64A.5.5,0,0,0,398.92,285.91Z" transform="translate(-80.43 -58.24)"/><path class="cls-1" d="M424.43,285.68a21.21,21.21,0,0,1-6.36,1.76,9.3,9.3,0,0,0,1.48-3c.21-.61-.76-.87-1-.26a5.71,5.71,0,0,1-2.24,3.44.51.51,0,0,0,.25.94,22.82,22.82,0,0,0,8.35-2C425.52,286.28,425,285.42,424.43,285.68Z" transform="translate(-80.43 -58.24)"/><path class="cls-1" d="M389.26,273.15a23,23,0,0,0-8.7,5c-.48.44.23,1.14.7.71a21.6,21.6,0,0,1,8.26-4.73C390.14,273.93,389.87,273,389.26,273.15Z" transform="translate(-80.43 -58.24)"/><path class="cls-1" d="M439.84,281.34c-4.42-2.27-7.83-6.06-12.46-8-4.88-2-10.26-2.29-15.47-2.56-.64,0-.64,1,0,1,5.34.27,10.93.55,15.87,2.82,4.22,1.94,7.43,5.45,11.55,7.57C439.91,282.49,440.41,281.63,439.84,281.34Z" transform="translate(-80.43 -58.24)"/><path class="cls-1" d="M442.4,289.28a53.85,53.85,0,0,1-6.35-3.42c-.55-.35-1.05.52-.5.86a54.51,54.51,0,0,0,6.34,3.42C442.47,290.41,443,289.55,442.4,289.28Z" transform="translate(-80.43 -58.24)"/><path class="cls-1" d="M434.9,290a5.32,5.32,0,0,1-3.33-4.72c0-.65-1-.65-1,0a6.35,6.35,0,0,0,4.06,5.68C435.23,291.16,435.49,290.19,434.9,290Z" transform="translate(-80.43 -58.24)"/><path class="cls-1" d="M427.52,287.8a10,10,0,0,1-.87-4.92c0-.64-1-.64-1,0a11,11,0,0,0,1,5.43C426.93,288.89,427.79,288.39,427.52,287.8Z" transform="translate(-80.43 -58.24)"/><path class="cls-1" d="M439.43,260.39c-6-1.3-12.54-3.68-18.7-2.52-3.28.61-6.37,1.92-9.63,2.59a36.25,36.25,0,0,1-10.6.5c-.64-.06-.63.94,0,1,6.33.59,11.83-.81,17.85-2.49,7-2,13.91.38,20.82,1.89C439.79,261.49,440.06,260.53,439.43,260.39Z" transform="translate(-80.43 -58.24)"/><path class="cls-1" d="M307,261.73c-9-1.26-18.1-2.53-26.91-4.91-3.48-.94-6.85-2.64-10.49-1.73-4.39,1.09-8.73,2.7-13,4.22-.6.22-.34,1.18.27,1,4.05-1.46,8.14-2.86,12.29-4s8.39,1,12.48,2a233.74,233.74,0,0,0,25.08,4.43C307.34,262.78,307.61,261.82,307,261.73Z" transform="translate(-80.43 -58.24)"/><path class="cls-1" d="M328,244.86c-.15-.43-.87-.52-1,0a35.79,35.79,0,0,1-2.29,7.57,18.54,18.54,0,0,0-3.41-8.93.51.51,0,0,0-.94.26,13.77,13.77,0,0,1-.87,5.09c-.22.61.74.87,1,.27a14.31,14.31,0,0,0,.85-3.78,17.45,17.45,0,0,1,2.53,9.14c0,.48.71.72.93.26a37.08,37.08,0,0,0,2.81-7.84c1.48,4.73,2.48,9.8-.32,14.27-.34.54.53,1.05.87.5C331.45,256.4,329.82,250.35,328,244.86Z" transform="translate(-80.43 -58.24)"/><path class="cls-1" d="M381.83,247c-3.61.94-7.28,2-10,4.65a20.41,20.41,0,0,1,.68-4c.1-.33-.25-.76-.61-.61-2.08.87-4.12,2.25-4.8,4.53-.82,2.71.88,5.26,2.39,7.35.37.52,1.24,0,.86-.51-1.11-1.53-2.43-3.29-2.46-5.28,0-2.2,1.59-3.76,3.41-4.72a20.88,20.88,0,0,0-.52,4.55c0,.4.57.7.86.36,2.28-2.79,5.55-4,8.9-4.94a20.84,20.84,0,0,0-3.91,8c-.15.63.81.89,1,.27a20,20,0,0,1,4.7-8.86A.5.5,0,0,0,381.83,247Z" transform="translate(-80.43 -58.24)"/><path class="cls-1" d="M328.13,384a138.65,138.65,0,0,1-18,3.06c-.64.07-.64,1.07,0,1A139.4,139.4,0,0,0,328.4,385C329,384.85,328.76,383.89,328.13,384Z" transform="translate(-80.43 -58.24)"/><path class="cls-1" d="M304,388l-3.1.22c-.57,0-1.71-.1-2.12.46s0,1,.25,1.5c.58,1,1.17,1.91,1.76,2.86.33.55,1.2.05.86-.5l-1.07-1.75L300,390c-.09-.16-.19-.32-.29-.48s-.11-.25.19-.23a6.86,6.86,0,0,1,1.82-.13L304,389C304.59,388.94,304.59,387.94,304,388Z" transform="translate(-80.43 -58.24)"/><path class="cls-1" d="M392.51,387.25a86.5,86.5,0,0,1-15.6-.43c-5.11-.65-10.2-1.57-15.36-1.82-5-.25-10,.14-15-.13a44.75,44.75,0,0,1-8.37-1.32,8.38,8.38,0,0,0-5.24,0c-.6.22-.34,1.19.26,1,2.57-1,5.15.23,7.69.72a44.09,44.09,0,0,0,6.59.69c5,.2,10-.17,15,.14s9.92,1.22,14.89,1.83a86.88,86.88,0,0,0,15.13.37C393.15,388.22,393.16,387.21,392.51,387.25Z" transform="translate(-80.43 -58.24)"/><path class="cls-1" d="M376.06,398.84a50.44,50.44,0,0,1-10.11,4,.36.36,0,0,0-.27,0l-2.2.69c-.61.19-.35,1.16.27,1l.81-.25h.06a51.48,51.48,0,0,0,11.95-4.51C377.14,399.4,376.63,398.54,376.06,398.84Z" transform="translate(-80.43 -58.24)"/><path class="cls-1" d="M319.85,319.22c-2,3.1-4.09,6.17-6.05,9.31A38,38,0,0,0,310,337.6c-.19.62.77.88,1,.27a38.29,38.29,0,0,1,4.16-9.49c1.86-2.9,3.75-5.77,5.63-8.65C321.06,319.19,320.2,318.69,319.85,319.22Z" transform="translate(-80.43 -58.24)"/><path class="cls-1" d="M316.92,348.81c-.61-.22-.87.75-.27,1a21.89,21.89,0,0,1,3.71,1.52c.6.36,1.59.85,1.74,1.63s-.75,2.1-1.22,2.71a17.89,17.89,0,0,1-5.39,4.55.5.5,0,0,0,.5.86c2.65-1.48,6.45-4.22,7-7.44S319.14,349.63,316.92,348.81Z" transform="translate(-80.43 -58.24)"/><path class="cls-1" d="M381.48,347.49a22.8,22.8,0,0,1-5.22,3.36c-1.7.78-3.54,1.07-5.23,1.8-2.5,1.09-1.15,2.54-.12,4.54.3.57,1.16.06.86-.51a11.11,11.11,0,0,1-1.16-2.24c.08-.8.9-.91,1.55-1.13,1.27-.43,2.57-.73,3.82-1.25a23.7,23.7,0,0,0,6.2-3.86C382.68,347.79,382,347.08,381.48,347.49Z" transform="translate(-80.43 -58.24)"/><path class="cls-1" d="M366.49,343.79c-2.07-3.41-7.49-1.11-9.84.67-.5.38,0,1.25.51.86a10.63,10.63,0,0,1,4.27-2c1-.2,2.52-.38,3.41.25q2.57,2.63-1,2.68a7.45,7.45,0,0,1-.95-.63c-.52-.38-1,.49-.5.86,1,.74,2.35,1.5,3.54.67A2.46,2.46,0,0,0,366.49,343.79Z" transform="translate(-80.43 -58.24)"/><path class="cls-1" d="M330.18,344.7l-2.66,1.38c-.57.3-.07,1.17.5.87l2.66-1.39C331.25,345.26,330.75,344.4,330.18,344.7Z" transform="translate(-80.43 -58.24)"/><path class="cls-1" d="M339.21,346.17c-4.39-2.53-10.61-5.89-14.83-1.18-.43.48.28,1.19.71.71,3.91-4.37,9.64-1,13.61,1.33A.5.5,0,0,0,339.21,346.17Z" transform="translate(-80.43 -58.24)"/><path class="cls-1" d="M351.27,350.77c-.95,1.35-1.83,2.74-2.66,4.17a.5.5,0,0,0,.87.5c.82-1.43,1.71-2.81,2.66-4.16C352.51,350.75,351.64,350.25,351.27,350.77Z" transform="translate(-80.43 -58.24)"/><path class="cls-1" d="M271.85,398.18a88.79,88.79,0,0,0-3-9.71c-.22-.59-1.19-.33-1,.27a91,91,0,0,1,3,9.71C271,399.07,272,398.8,271.85,398.18Z" transform="translate(-80.43 -58.24)"/><path class="cls-1" d="M285.64,437.38q-2.43-3.81-4.85-7.63c-.35-.54-1.22,0-.87.51l4.86,7.63C285.12,438.43,286,437.93,285.64,437.38Z" transform="translate(-80.43 -58.24)"/><path class="cls-1" d="M267.43,384.77a49,49,0,0,0-3.74-8.68c-.31-.56-1.17-.06-.86.5a47.1,47.1,0,0,1,3.63,8.45C266.66,385.65,267.62,385.39,267.43,384.77Z" transform="translate(-80.43 -58.24)"/><path class="cls-1" d="M460,393.41c-4.17,12.8-13,23.14-21.69,33.14-.42.49.29,1.2.71.71,8.8-10.14,17.72-20.61,21.95-33.59C461.14,393.06,460.17,392.8,460,393.41Z" transform="translate(-80.43 -58.24)"/><path class="cls-1" d="M477.94,366.52l-7,2.56a8.06,8.06,0,0,0-3.32,1.72c-1.15,1.23-1.57,3.33-2.12,4.87l-2.55,7c-.21.61.75.87,1,.27,1.16-3.22,2.23-6.5,3.49-9.69,1.38-3.47,7.47-4.59,10.78-5.81C478.81,367.26,478.55,366.3,477.94,366.52Z" transform="translate(-80.43 -58.24)"/><path class="cls-1" d="M493.06,338.48A49.36,49.36,0,0,1,486,356.19c-.35.55.51,1.05.86.51a50.14,50.14,0,0,0,7.16-18C494.15,338.11,493.18,337.85,493.06,338.48Z" transform="translate(-80.43 -58.24)"/><path class="cls-1" d="M226.88,344.17q-1.74-3.53-3.46-7.05c-1-2.12-2.21-4.15-2.32-6.56a43.74,43.74,0,0,1,2.15-13.9.5.5,0,0,0-1-.27c-1.35,4.62-2.66,10.09-2.14,14.94a14.91,14.91,0,0,0,1.76,5q2,4.18,4.1,8.37C226.3,345.25,227.16,344.74,226.88,344.17Z" transform="translate(-80.43 -58.24)"/><path class="cls-1" d="M228.83,110.64q-2.49-7.33-5-14.68a.5.5,0,0,0-1,.13q-.69,7.45-1.36,14.91c-.06.64.94.64,1,0l1.14-12.52q2.1,6.21,4.21,12.43C228.07,111.52,229,111.26,228.83,110.64Z" transform="translate(-80.43 -58.24)"/><path class="cls-1" d="M213.88,115.65a83.13,83.13,0,0,0-7.31,15.79c-.2.61.76.88,1,.27a81.56,81.56,0,0,1,6.2-13.78c-.08,2.44-.17,4.87-.25,7.3a.5.5,0,0,0,1,0l.32-9.33A.5.5,0,0,0,213.88,115.65Z" transform="translate(-80.43 -58.24)"/><path class="cls-1" d="M299.07,289.85c-5.22-1-10.7-1.58-15.13,1.9-.5.39.21,1.1.71.7,4.11-3.23,9.36-2.51,14.15-1.63C299.43,290.93,299.7,290,299.07,289.85Z" transform="translate(-80.43 -58.24)"/><path class="cls-1" d="M415.87,290.13a20.37,20.37,0,0,0-14.66-.21c-.6.21-.34,1.18.26,1a19.54,19.54,0,0,1,14.14.21C416.21,291.33,416.47,290.36,415.87,290.13Z" transform="translate(-80.43 -58.24)"/><path class="cls-1" d="M410.74,284.23a4.78,4.78,0,0,1-3.29.67c-1.9-.3-1-2.28-.33-3.31.35-.54-.51-1-.86-.5-.88,1.37-1.72,3.62.22,4.57a5.42,5.42,0,0,0,5-.72C412,284.55,411.24,283.84,410.74,284.23Z" transform="translate(-80.43 -58.24)"/><path class="cls-1" d="M339.19,515.94c-5.79-6-11.72-11.79-17.38-17.86-2.71-2.91-5.13-6.07-6.16-10s-.87-7.89-.73-11.83c0-.65-1-.65-1,0a44.77,44.77,0,0,0,.56,11.27,22,22,0,0,0,4.95,9.37c5.87,6.95,12.71,13.22,19.06,19.73C338.94,517.1,339.64,516.4,339.19,515.94Z" transform="translate(-80.43 -58.24)"/><path class="cls-1" d="M403.66,456.72a89.24,89.24,0,0,1-10,2.5,12.17,12.17,0,0,1,4.56-5.24.5.5,0,0,0-.38-.92l-10.26,2.85a.5.5,0,0,0,.26,1l7.87-2.18a13.49,13.49,0,0,0-3.36,5.06c-.15.39.28.68.61.62,2.95-.53,5.85-1.2,8.72-2-13.15,10.81-30,15.36-46.27,19.41a.5.5,0,0,0,.27,1c17.18-4.28,35-9.14,48.5-21.19A.5.5,0,0,0,403.66,456.72Z" transform="translate(-80.43 -58.24)"/><path class="cls-1" d="M338.23,415.84l-5.79,2.34-1.21.49c-.75.3-1,.6-.89-.38a27.42,27.42,0,0,1,.78-3,.5.5,0,0,0-1-.27c-.27,1-2.06,4.8-.09,5,1,.13,2.64-1,3.55-1.33l4.88-2C339.09,416.57,338.83,415.6,338.23,415.84Z" transform="translate(-80.43 -58.24)"/><path class="cls-1" d="M367.85,414.49l-1.74-4.24c-.25-.58-1.21-.33-1,.27.58,1.41,1.17,2.82,1.75,4.24a5.48,5.48,0,0,1,.39.94c.05.3.12,1-.25,1.16-.56.27-2.47-.64-3-.86s-1.1.6-.51.86c1.08.48,4.17,2,4.85.17C368.72,416.19,368.16,415.23,367.85,414.49Z" transform="translate(-80.43 -58.24)"/><path class="cls-1" d="M360.14,418.68A73.67,73.67,0,0,0,344,423.84c-.58.26-.08,1.13.51.86a73,73,0,0,1,15.93-5.06C361,419.52,360.77,418.55,360.14,418.68Z" transform="translate(-80.43 -58.24)"/><path class="cls-1" d="M332,403.69a48.23,48.23,0,0,1-9.85-2.83c-.59-.24-.85.73-.26,1a48,48,0,0,0,9.85,2.82C332.4,404.76,332.67,403.8,332,403.69Z" transform="translate(-80.43 -58.24)"/><path class="cls-1" d="M401.25,392.26a32,32,0,0,0-4.25-3.44c-.53-.36-1,.51-.5.87a31.83,31.83,0,0,1,4.05,3.27C401,393.41,401.72,392.7,401.25,392.26Z" transform="translate(-80.43 -58.24)"/><path class="cls-1" d="M356.55,365.79c-1.54-2.22-3-4.52-4.28-6.88-.31-.56-1.18-.06-.86.51q2,3.54,4.28,6.87C356.05,366.82,356.92,366.32,356.55,365.79Z" transform="translate(-80.43 -58.24)"/><path class="cls-1" d="M472.32,337.15a237.29,237.29,0,0,0-4.54,27.15c-.07.63.93.63,1,0a234.81,234.81,0,0,1,4.51-26.88C473.43,336.79,472.47,336.52,472.32,337.15Z" transform="translate(-80.43 -58.24)"/><path class="cls-1" d="M491.53,290.88c0-.63-1-.64-1,0,.48,5.62.36,15.1-5.2,18.42a20.76,20.76,0,0,1-1.24-4.95.52.52,0,0,0-.86-.36,21.77,21.77,0,0,0-3.73,4.65c-.35.54.51,1,.86.51a23.69,23.69,0,0,1,2.89-3.77,22,22,0,0,0,1.34,4.8.51.51,0,0,0,.74.29C491.78,307.26,492.06,297,491.53,290.88Z" transform="translate(-80.43 -58.24)"/><path class="cls-1" d="M213.37,232.92a142.24,142.24,0,0,0-11.56,8.58,21.23,21.23,0,0,1,1.92-4.14c.72-1.41,1.52-2.77,2.37-4.11.35-.55-.52-1.05-.86-.51a51.22,51.22,0,0,0-3.14,5.66c-.62,1.33-1.47,2.79-1.46,4.29a.5.5,0,0,0,.85.35,140.75,140.75,0,0,1,12.38-9.25C214.4,233.43,213.9,232.56,213.37,232.92Z" transform="translate(-80.43 -58.24)"/><path class="cls-1" d="M239.66,90.4a.51.51,0,0,0-.92-.12,26.43,26.43,0,0,1-6.32,8.81c-.48.44.23,1.15.7.71a27,27,0,0,0,5.82-7.63,43.16,43.16,0,0,1,.44,4.82c0,.64,1,.65,1,0A45.49,45.49,0,0,0,239.66,90.4Z" transform="translate(-80.43 -58.24)"/><path class="cls-1" d="M530.88,531.68c-2.64-6.34-2.89-13.48-6-19.65-.8-1.59-2.36-5-4.62-4.63-1.34.23-2.61,1.69-3.63,2.48L511.31,514c-.5.38,0,1.25.51.86l4.19-3.23c1.1-.85,2.62-2.57,4-3,2.73-.89,4.84,5.48,5.45,7.3,1.77,5.28,2.36,10.87,4.51,16C530.16,532.54,531.13,532.28,530.88,531.68Z" transform="translate(-80.43 -58.24)"/><path class="cls-1" d="M599,541.06a62.12,62.12,0,0,0-31.72,7.77c-.56.31-.06,1.17.51.86a61,61,0,0,1,30.62-7.63,87.24,87.24,0,0,1-7.4,23.36c-.28.57.59,1.08.87.5a88.09,88.09,0,0,0,7.6-24.22A.51.51,0,0,0,599,541.06Z" transform="translate(-80.43 -58.24)"/><path class="cls-1" d="M611.6,589.05a168.39,168.39,0,0,0-41.23,63.11c-.22.61.74.87,1,.27a167.23,167.23,0,0,1,41-62.68C612.77,589.31,612.06,588.6,611.6,589.05Z" transform="translate(-80.43 -58.24)"/><path class="cls-1" d="M559.39,584.35a300.57,300.57,0,0,0-12.93,60.43c-.06.64.94.63,1,0a298.88,298.88,0,0,1,12.9-60.17C560.56,584,559.59,583.74,559.39,584.35Z" transform="translate(-80.43 -58.24)"/><path class="cls-1" d="M432.71,624.85a277.62,277.62,0,0,1-54.89,66.39c-.48.43.23,1.13.71.71a278.6,278.6,0,0,0,55-66.6A.5.5,0,0,0,432.71,624.85Z" transform="translate(-80.43 -58.24)"/><path class="cls-1" d="M282.29,691.92a211.4,211.4,0,0,1-22.06-32.82c-.31-.57-1.17-.06-.86.5a213,213,0,0,0,22.21,33C282,693.13,282.69,692.42,282.29,691.92Z" transform="translate(-80.43 -58.24)"/><path class="cls-1" d="M138.58,632.5c-.5-3-2.28-6.22-5.82-5.84s-6.18,4-7.8,6.93a47.07,47.07,0,0,0-5,31.09c.12.64,1.08.37,1-.26A45.93,45.93,0,0,1,124,637.83c1.56-3.55,4.32-9.83,8.86-10.14,5.71-.39,5.09,8.15,5.2,11.9a167.62,167.62,0,0,1-7.27,54.14,167.93,167.93,0,0,1-11.84,28.79c-.3.57.56,1.08.86.5a169.7,169.7,0,0,0,18.29-59.77q.9-8,1-16.06C139.17,642.38,139.36,637.26,138.58,632.5Z" transform="translate(-80.43 -58.24)"/><path class="cls-1" d="M206,608.81c-6.14,23.63-21.9,42.87-37.18,61.28-.4.49.3,1.2.71.71,15.39-18.55,31.25-37.93,37.43-61.72A.5.5,0,0,0,206,608.81Z" transform="translate(-80.43 -58.24)"/><path class="cls-1" d="M107.72,685.48A175.33,175.33,0,0,1,81.79,631a.5.5,0,0,0-1,.27,176,176,0,0,0,26,54.69C107.23,686.5,108.1,686,107.72,685.48Z" transform="translate(-80.43 -58.24)"/><path class="cls-1" d="M633.82,642.51A171.14,171.14,0,0,0,587,668.4c-.51.4.21,1.1.71.71a170.15,170.15,0,0,1,46.41-25.64C634.68,643.25,634.42,642.29,633.82,642.51Z" transform="translate(-80.43 -58.24)"/><path class="cls-1" d="M589.19,626.28A111.41,111.41,0,0,1,582.68,645c-.26.58.6,1.09.86.51a112.34,112.34,0,0,0,6.61-19A.5.5,0,0,0,589.19,626.28Z" transform="translate(-80.43 -58.24)"/><path class="cls-1" d="M432.46,173l-2.82-6.11c-.27-.59-1.13-.08-.87.5q1.43,3.06,2.83,6.12C431.87,174.07,432.73,173.56,432.46,173Z" transform="translate(-80.43 -58.24)"/><path class="cls-1" d="M442.88,186.88c0-.64-1-.64-1,0,.16,2.2.32,4.39.47,6.59,0,.64,1,.64,1,0C443.2,191.27,443,189.08,442.88,186.88Z" transform="translate(-80.43 -58.24)"/><path class="cls-1" d="M296.83,304.43a50.37,50.37,0,0,1-21.45.18c-.63-.14-.89.83-.26,1a51.67,51.67,0,0,0,22-.17C297.72,305.25,297.46,304.29,296.83,304.43Z" transform="translate(-80.43 -58.24)"/><path class="cls-1" d="M418.48,302.54c-5.61.08-11.31.08-16.58-2.15-.58-.25-1.09.61-.5.86,5.45,2.31,11.26,2.37,17.08,2.29A.5.5,0,0,0,418.48,302.54Z" transform="translate(-80.43 -58.24)"/><path class="cls-1" d="M375.05,264.9c-1.23.5-2.46,1-3.72,1.35a2.45,2.45,0,0,1-.76.23c-.56-.09-.36-.49-.32-.86l.24-2.23c.07-.64-.94-.64-1,0a13.73,13.73,0,0,0-.32,3.18,1,1,0,0,0,.89,1,5.25,5.25,0,0,0,2.28-.56c1-.33,2-.7,3-1.1C375.9,265.63,375.64,264.66,375.05,264.9Z" transform="translate(-80.43 -58.24)"/><path class="cls-1" d="M329.86,259.64c-.47,1.28-1,2.55-1.55,3.79-.31.69-.63,1.23-1.45.83a4.87,4.87,0,0,1-1.51-1.23c-.42-.49-1.12.22-.71.7.72.85,2.52,2.41,3.71,1.56.69-.49,1-1.68,1.29-2.41.42-1,.81-2,1.18-3C331,259.3,330.07,259,329.86,259.64Z" transform="translate(-80.43 -58.24)"/><path class="cls-1" d="M388.51,284.48a9.94,9.94,0,0,1-2.24-.41,9.63,9.63,0,0,1-1.17-.43l-.46-.23c-.21-.06-.21-.12,0-.19.09-.23.73-.56.91-.7l.91-.7,1.82-1.4c.5-.39,0-1.26-.51-.87l-3,2.34c-.49.38-1.53.87-1.35,1.64s1.19,1,1.77,1.22a10.86,10.86,0,0,0,3.32.73C389.15,285.53,389.15,284.53,388.51,284.48Z" transform="translate(-80.43 -58.24)"/><path class="cls-1" d="M364.63,370.93c-2-1.07-4.74-2.94-7.13-2.56a15.64,15.64,0,0,0-3.27,1.19,12.41,12.41,0,0,1-6.44.89c-3.26-.34-6.62-1.93-9.88-1.86a14.85,14.85,0,0,0-7.84,2.68c-.52.37,0,1.24.5.86a12.66,12.66,0,0,1,9.86-2.16,57.77,57.77,0,0,0,7.36,1.48,12.85,12.85,0,0,0,6.56-.86c1.75-.72,3.34-1.47,5.23-1a22.63,22.63,0,0,1,4.55,2.18C364.69,372.1,365.2,371.24,364.63,370.93Z" transform="translate(-80.43 -58.24)"/><path class="cls-1" d="M273.31,457.71C268,467,259,473.11,251.66,480.58c-7.57,7.67-14.06,16.33-20.28,25.1-6.86,9.66-13.6,19.39-20.4,29.09l-10.25,14.65c-3.06,4.36-6.26,8.61-7.58,13.86-.75,3-1.05,6-1.68,9-.58,2.73-1.74,5.4-1.9,8.2-.21,3.66,2.29,7.83,6.41,7,.63-.13.37-1.1-.26-1-4.44,1-5.53-4.52-4.91-7.68.53-2.69,1.46-5.26,1.95-8,.89-5,1.55-9.65,4.17-14.06,2.77-4.64,6.13-9,9.22-13.39l9.12-13c11.94-17,23.19-35.34,38-50.07,7.21-7.13,15.72-13.16,20.85-22.11A.5.5,0,0,0,273.31,457.71Z" transform="translate(-80.43 -58.24)"/><path class="cls-1" d="M247.53,556.75a168.22,168.22,0,0,0-19-2.79c-5.84-.51-11.9-.82-17.6.84A20.27,20.27,0,0,0,200,562.13c-2.94,4.14-5.24,10.43-5.07,15.52,0,.64,1,.64,1,0-.17-4.85,2.12-11.08,4.93-15,3-4.14,7.85-6.5,12.74-7.45,5.24-1,10.65-.63,15.93-.14a162.71,162.71,0,0,1,17.71,2.67C247.89,557.84,248.16,556.88,247.53,556.75Z" transform="translate(-80.43 -58.24)"/><path class="cls-1" d="M332.19,651.46c-2.64-2.35-3.22-6.24-6-8.43a17,17,0,0,0-4.42-2.08c-2.32-.88-4.64-1.78-6.94-2.71q-13.76-5.55-27-12.25a266.35,266.35,0,0,1-25-13.86c-7.79-5-15.14-11.34-19.25-19.83-5-10.34-3.54-22.17-.86-32.93a.5.5,0,0,0-1-.27c-2.22,8.94-3.64,18.46-1.3,27.53,2.19,8.48,7.8,15.54,14.47,21,7.43,6.08,16.07,10.64,24.51,15.14q13.36,7.11,27.26,13.14,7.33,3.15,14.79,6c3.09,1.16,5,2.37,6.62,5.32a17,17,0,0,0,3.4,4.93C332,652.6,332.68,651.89,332.19,651.46Z" transform="translate(-80.43 -58.24)"/><path class="cls-1" d="M537.26,586.52c-.36-2.85-2.8-5.36-4-7.92-1.48-3.1-5.18-8.87-5.21-8.9-1-1.93-2.13-3.84-3.27-5.71-5.8-9.49-12-18.38-16.32-28.69a326,326,0,0,0-14.4-29.46c-5-9.19-10-18.22-17.05-26-4-4.48-8.19-8.79-11.29-14-2.66-4.46-5-9.13-9.06-12.49-.49-.41-1.2.29-.7.7,3.8,3.14,6,7.43,8.49,11.61A67.29,67.29,0,0,0,473,477a111.08,111.08,0,0,1,10.37,12.55c3,4.36,5.51,9,8,13.58,5.42,9.94,10.8,19.9,15.18,30.35a129.09,129.09,0,0,0,6.23,13.39c2.59,4.61,5.55,9,8.41,13.44,2.13,3.3,7.79,13.52,9,15.05,1.44,1.81,2.16,4,3.28,6,1.29,2.33,3,4.13,2.76,7-.44,4.77-5.16,3.31-8.16,2.35-.16,0-13.2-3.63-19.52-5.49-9.06-2.65-18.22-5.1-27.19-8s-16.38-8.39-24.27-13.1q-12.27-7.34-24.87-14.06a.51.51,0,0,0-.73.58c-3.8,11.21-11.52,20.82-18.13,30.48-3.35,4.89-6.4,10.46-11.12,14.17-4.13,3.24-8.41,5.66-11.88,9.7-7.84,9.12-15,18.81-22.67,28.08a138.37,138.37,0,0,1-11.44,12.52c-3.84,3.62-8.23,6.51-12.23,9.93-4.55,3.9-6.9,9-9.95,14.07a111.3,111.3,0,0,1-11.81,15.93c-.42.48.28,1.19.71.71a114.16,114.16,0,0,0,10.06-13.13c3.13-4.78,5.37-10.46,9.32-14.63,3.75-4,8.56-6.77,12.64-10.37a116.76,116.76,0,0,0,11.69-12.26c7.74-9.19,15.09-18.72,22.66-28a42.85,42.85,0,0,1,5.82-6.22c2.31-1.91,4.93-3.39,7.31-5.2,4.2-3.19,6.91-7.68,9.85-12,7.19-10.51,15.79-21,20-33.15q12.69,6.82,25.07,14.22c7.71,4.62,15.07,9.92,23.69,12.72,9.28,3,18.73,5.53,28.09,8.27,6.3,1.85,19,5.39,19,5.36,2,.65,5.25,1.68,7.15.73S537.48,588.29,537.26,586.52Z" transform="translate(-80.43 -58.24)"/></svg>