<?xml version="1.0" encoding="utf-8"?>
<!-- Generator: Adobe Illustrator 23.0.1, SVG Export Plug-In . SVG Version: 6.00 Build 0)  -->
<svg version="1.1" id="Layer_1" xmlns="http://www.w3.org/2000/svg" xmlns:xlink="http://www.w3.org/1999/xlink" x="0px" y="0px"
	 viewBox="0 0 322.9 69.9" style="enable-background:new 0 0 322.9 69.9;" xml:space="preserve">
<style type="text/css">
	.st0{fill:#121212;}
	.st1{display:none;fill:#0B0B0B;}
</style>
<g>
	<g transform="matrix(1, 0, 0, 1, -482.4429, 143.0785)">
		<g transform="matrix(1, 0, 0, 1, 65.75, -37.375)">
			<path class="st0" d="M450.6-83l1.1,0l1.1,0l0,0l0.4,0.1l1,0.5l0.1,0.1l0.1,0l0.7,0.6l0,0l0,0l0.5,0.4l0-0.4l0-0.2l0-0.1l0.3-0.8
				l0.8-0.3l0.8,0.3l0.3,0.8l0,0.1l0,0.2l0,1v1.5l0.1,1l0.6,0.9l0.1,0.4l-0.2,0.5l-0.2,0.1l0.1,1.1l0.4,2.1l0.5,2.2l0.5,2l0,0l0,0
				l0.5,1.9l0.7,1.6l0.6,1.3l0.6,0.8l0.1,0.3l-0.2,0.4l-0.4,0.2l-0.4-0.1l-0.8-0.7l0-0.1l-0.1,0l-0.9-1.2l0,0l0,0l-1-1.5l0-0.1
				l-0.1-0.1l-0.6-1.9l0,0l0,0l-0.5-1.9l-0.2,1l0,0l0,0l-0.6,1.9l0,0l0,0.1l-0.7,1.6l-0.1,0.1l0,0.1l-1.1,1.3l-0.1,0l0,0.1l-1,0.7
				l-0.4,0.1l-0.1,0l-1,0l-1,0l0,0l-0.4-0.1l-0.9-0.4l-0.1-0.1l-0.1,0l-0.9-0.7l-0.1-0.1l-0.1-0.1l-0.9-1.1l0-0.1l-0.1-0.1l-0.8-1.4
				l0,0l0,0l-0.7-1.5l0-0.2l0-0.1l-0.3-1.7l0-0.2l0,0l0,0v-1.7l0-1.8v0l0-0.1l0.3-1.8l0,0l0-0.1l0.5-1.9l0-0.1l0-0.1l0.8-1.6l0,0
				l0,0l0.9-1.5l0.1,0l0-0.1l1-1l0.1-0.1l0.5-0.2l1.1-0.1L450.6-83L450.6-83L450.6-83z M451.7-81.1l-1,0L450-81l-0.7,0.7l-0.8,1.4
				l-0.7,1.4l-0.5,1.8L447-74l0,1.7v1.6l0.3,1.5l0.7,1.3l0.7,1.3l0.7,1l0.7,0.6l0.6,0.4l0.8,0l0.8,0l0.6-0.5l0.9-1.1l0.6-1.5
				l0.5-1.8l0.4-2l0.1-2.2l0.1-2.2l0-1.9v0l0,0l0-0.6l-0.8-1.2l-0.8-0.6l-0.7-0.5l-0.8-0.3L451.7-81.1z"/>
		</g>
	</g>
	<g transform="matrix(1, 0, 0, 1, -485.7731, 144.1676)">
		<g transform="matrix(1, 0, 0, 1, 83.125, -77)">
			<path class="st0" d="M453.1-57.8L453.1-57.8L453.1-57.8l0.1,0.2l0.1,0.4l0,4.3l0,2.1v0l0,0l0,2.3l0,0l0,0l0,2.4l0,2.5v0l0,0
				l0,2.7v0l0,0l0,1.1l0.5-0.9l0.1-0.1l0-0.1l0.6-0.6l0.1-0.1l0.2-0.2l0.8-0.3l0.4-0.1h1l0,0l0.9,0l0,0l0.3,0.1l1,0.4l0.4,0.3l0.1,0
				l0.9,1.1l0,0.1l0.1,0.1l0.7,1.5l0,0.1l0,0l0.6,1.8l0,0l0,0l0.6,1.8l0,0.1l0,0l0.3,2l0.4,1.8l0,0.1l0,0l0.2,1.9l0.2,1.9l0,0l0,0
				l0.1,1.7l0,0.1v0l0,1.5l0,0v0l0,1.2l0,0.7v0l0,0l0,0.3l-0.2,0.4l-0.1,0.2l0,0l0,0l-0.7,0.3l-0.7-0.3l0,0l0,0l-0.1-0.2l-0.2-0.4
				l0-0.3l0,0l0,0l0-0.7l0-1.2v0l0,0l0-1.5l-0.1-1.6l-0.2-1.9l0,0l0,0l-0.2-1.8l-0.4-1.8l0-0.1l0,0l-0.3-1.9l-0.6-1.7v0l-0.6-1.7
				l-0.6-1.3l-0.6-0.8l-0.6-0.2l-0.7,0h0h-0.8l-0.4,0.2l-0.4,0.4l-0.4,0.8l-0.3,1l-0.3,1.5l0,0l0,0l-0.4,1.6l-0.1,1.5l0,0l-0.1,1.6
				v0l0,0l-0.1,1.5l-0.1,1.2l0,0l0,0.1l-0.2,1l0,0l0,0l-0.1,0.6l-0.2,0.3l-0.1,0.2l0,0l0,0l-0.6,0.2l-0.6-0.2l0,0l0,0l-0.1-0.2
				l-0.2-0.4l0-0.6l0,0l0-0.1l0.1-0.5l0-0.9v0v-1.6v0l0-2l0,0l0,0l0-2.5l0-2.6l0-2.7l0,0v0l0-2.7l0,0v0l0-2.5l0-2.4l0,0l0,0l0-2.3
				l0,0v0l0-2.1l0-4.3l0.1-0.4l0.1-0.2l0,0l0,0l0.5-0.2L453.1-57.8z"/>
		</g>
	</g>
	<g transform="matrix(1, 0, 0, 1, -482.0856, 136.1892)">
		<g transform="matrix(1, 0, 0, 1, 125, -39.875)">
			<path class="st0" d="M439.2-71.7l1.5,0l0.9,0l0.1,0l0.6,0.2l0.7,0.7l0,0.1l0.2,0.2l0.5,1.2l0.1,0.3l0,0l0.1,1.4l0.3,1.7l0,0l0,0
				l0.3,1.8l0,0l0,0l0.2,2.1l0,0l0,0l0.1,2.1v0l0,0l0.1,2.1l0.2,2l0,0l0,0l0.2,1.8l0.2,1.4l0.3,1.1l0,0.1l0,0l0.1,0.9l0,0.1
				l-0.3,0.7l-0.7,0.3l-0.7-0.3L444-50l-0.1-0.8l-0.3-1.1l0-0.1l0,0l-0.2-1.5l0,0l0,0l-0.2-1.8v0l-0.2-2.1l0,0l0,0l-0.1-2.1v0l0,0
				l-0.1-2l-0.2-2l-0.3-1.8v0l-0.3-1.7l0-0.1l0,0l-0.1-1.3l-0.4-0.9l-0.3-0.3l-0.5,0l-1.4,0l-0.8,0.2l-0.9,0.5l-0.8,0.8l-0.8,1.2
				l-0.7,1.3l-0.5,1.2l0.1,0.8l0,0.1l0,0l0,1.5l0,0v0l0,1.4l0,1.3v0v0l0,1.2l0,0v0l0,0.8v0.9l0,0l0,0.1l-0.2,0.4l-0.1,0.2l0,0l0,0
				l-0.7,0.3l-0.1,0l-0.2,0l0,0l-0.1-0.1l-0.2-0.1l-0.1-0.1l0,0l0,0l0,0l0,0l-0.1,0l0-0.1l-0.1-0.1l-0.1-0.3l0-0.1l0-0.1l-0.2-0.9
				l0-0.1l0,0l-0.1-1l0-0.1v-1.3l0-1.5l0-1.5v0l0-0.2l0.3-1.4l0-0.5l-0.3-1.2l0-0.1l0,0l-0.2-1l-0.2-0.6l-0.1-0.3l-0.7,0.2l-0.2,0
				l-0.7-0.3l-0.3-0.7l0,0l0.2-0.6l0,0l0,0l0.2-0.1l0.3-0.2l1-0.2l0.2,0l0,0l0.3,0h0l0.7,0.3l0,0.1l0.1,0l0.3,0.4l0,0.1l0.1,0.1
				l0.3,0.5l0,0.1l0,0.1l0.3,0.7l0,0.1l0,0l0,0.1l0.2-0.4l0,0l0-0.1l0.9-1.3l0.1,0l0-0.1l1-1l0.1-0.1l0.1-0.1l1.1-0.6l0.1,0l0.1-0.1
				l1-0.3L439.2-71.7L439.2-71.7L439.2-71.7z"/>
			<path class="st0" d="M445.6-49.4L445.6-49.4l-0.1,0.1L445.6-49.4L445.6-49.4z"/>
		</g>
	</g>
	<g transform="matrix(1, 0, 0, 1, -486.5354, 143.3671)">
		<g transform="matrix(1, 0, 0, 1, 116.25, -37.375)">
			<path class="st0" d="M438.3-78.6L438.3-78.6L438.3-78.6l0.1,0.2l0.2,0.4l0.3,3.9l0.2,1.1l0.4,1.2l0,0.1l0,0l0.1,1.3l0,0.1l0,0
				l0.1,1.3l0,0h0l0,1.3l0,1v0v0.9l0,0.5v0v0.4l-0.2,0.5l0,0.1l-0.1,0l0,0.1l0,0l0,0.1l-0.6,0.3l-0.6-0.3l0-0.1l0,0l0-0.1l-0.1,0
				l0-0.1l-0.2-0.5v-0.4v0l0-0.5v-0.9v0l0-1l0-1.3l0-1.2l-0.1-1.2l-0.3-1.2l0-0.1l0,0l-0.2-1.2l0-0.1l0,0l-0.3-3.9l0-0.1l0.3-0.6
				l0.6-0.3L438.3-78.6z"/>
		</g>
	</g>
	<g transform="matrix(1, 0, 0, 1, -487.591, 147.6299)">
		<g transform="matrix(1, 0, 0, 1, 112.875, -63.5)">
			<path class="st0" d="M440.9-69.7L440.9-69.7l0.5,0l0,0l0.3,0l0.4,0.1l0.2,0.1l0.1,0l0.6,0.6l0,0.1l0.2,0.2l0.4,0.8l0,0.1l0,0.1
				l0.2,1l0,0.1l0,0l0.1,0.9l0,0.1l0,0l0,0.9l0,0l0,0l-0.1,0.9l0,0l0,0l-0.1,0.8l0,0l0,0.1l-0.2,0.6l-0.2,0.3l-0.1,0l0,0l-0.5,0.3
				l0,0l0,0l-0.5,0.2l-0.1,0l0,0l-0.4,0.1l-0.3,0.1l-0.1,0l0,0l-0.3,0l-0.5-0.2l0,0l0,0l-0.4-0.5l0-0.1l-0.1-0.1l-0.2-0.5l0-0.1l0,0
				l-0.2-0.8l0,0l0,0l-0.1-0.8l0-0.1l0,0l0-0.7l0-0.1l0,0l0-0.5l0,0l0-0.1l0-0.1l-0.4-0.2l-0.3-0.6l0.1-0.5l1.3-2.2l0.1,0l0.1-0.1
				L440.9-69.7L440.9-69.7z M440.5-66.3L440.5-66.3l0.2,0.2l0,0l0,0l0.3,0.6l0,0.5l0,0.7l0.1,0.7l0,0l0,0l0.1,0.8l0.1,0.4l0.1,0.2
				l0.2,0l0.2,0l0.3-0.1l0.2-0.2l0.1-0.4l-0.1-0.7l0,0l0,0l-0.1-0.9v0l-0.1-0.9l-0.1-0.8l-0.3-0.8l-0.3-0.6l-0.3-0.3L440.5-66.3z"/>
		</g>
	</g>
	<g transform="matrix(1.1288, 0, 0, 1.1288, -279.4078, 123.8853)">
		<path class="st0" d="M354.6-103.2l1.8,0l0,0h0l2.1,0l2.2,0l2.3,0v0l0.2,0l2.1,0.5l0,0l0,0l2,0.5l0,0l0.1,0l1.6,0.7l0.1,0.1l0.1,0
			l1.3,0.9l0.1,0.2l0.2,0.1l0.6,0.9l0.1,0.4l0.1,0.1l0.1,1.3l0,0.1l0,0l-0.1,1.3l-0.1,0.1l-0.1,0.4l-1.1,1.4l-0.1,0l0,0.1l-1.5,1.3
			l-0.1,0l0,0l-1.7,1.1l-1.6,1.2l0,0l0,0l-1.4,0.9l0,0l0,0l-1.4,0.7l0,0l0,0l-1,0.5l-0.7,0.4l-0.1,0l0,0l-0.4,0.1v0.2l0.1,0.1
			l0.4,0.1l0.7,0.1l0.8,0.1l1,0l0,0l0.1,0l1.2,0.2l0,0h0l1.2,0.2l0,0l0,0l1.4,0.4l0.1,0l0.1,0l1.4,0.8l0,0l0,0l1.4,1l0.1,0.1
			l0.1,0.1l0.9,1.3l0,0.1l0.1,0.1l0.6,1.6l0,0.2l0,0l0.1,1.8l0,0l0,0l0,1.7v0l0,0.1l-0.3,1.7l0,0.1l-0.1,0.2l-0.9,1.6l-0.1,0l0,0.1
			l-1.4,1.4l0,0l0,0L368-71l0,0l0,0l-1.6,1.1l-0.1,0l0,0l-1.6,0.9l0,0l0,0l-1.6,0.7l-0.1,0l0,0l-1.8,0.5l-0.1,0l0,0l-1.4,0.1l0,0h0
			l-1.1,0h0l-0.2,0l-0.9-0.2l-0.4-0.3l0-0.1l0,0l-0.5-0.9v0l-0.6-1l0-0.1l0-0.1l-0.4-1.2l0-0.2l0.2-0.4l0.4-0.2l0.5,0.2l0.8,1.1l0,0
			l0,0l0.7,1l0,0l0,0l0.4,0.6l0.5,0.1l1,0l1.3-0.1l1.7-0.5l1.6-0.6l1.5-0.8l1.5-1.1l1.3-1.2l1.3-1.3l0.8-1.3l0.3-1.5l0-1.7l0-1.7
			l-0.5-1.4l-0.8-1.2l-1.2-0.9l-1.2-0.8l-1.3-0.4l-1.2-0.3l-1.1-0.2l-1-0.1l0,0l0,0l-0.9-0.1l0,0l0,0l-0.7-0.2l0,0l0,0l-0.5-0.2
			l-0.1-0.1l-0.2-0.1l-0.3-0.4l-0.1-0.3V-88l0,0l0-0.1l0.1-0.1l0,0l0-0.1l0,0l0.1-0.2l0.2-0.1l0.4-0.2l0.6-0.5l0,0l0,0l0.9-0.6l0,0
			l0,0l1.3-0.8l1.3-0.9l1.5-1.3l0,0l0,0l1.6-1.2l1.3-1.3l0.9-1.1l0-0.9l-0.1-1l-0.4-0.6l-1.1-0.7l-1.4-0.6l-1.9-0.5l-2-0.4l-2.2,0
			l-2.2,0l-2.1,0h0l0,0l-1.8,0l-1.5,0.1l-1.1,0.2l-0.6,0.2l-0.3,0.4l-0.2,0.4v0.6v0l0,1.2v3.5v0l0,2.2l0.1,2.5l0.1,2.8v0l0,0l0.1,3
			l0.2,2.9l0,0l0,0l0.1,2.8l0.1,2.3v0l0.1,1.9v0l0,0l0.1,1.4l0.1,1.1l0,0.2l0.2,0l0.3,0.2l0.2,0.1l0,0l0,0l0.2,0.6l-0.2,0.6
			l-0.6,0.2h0l-0.9,0l0,0l-0.5-0.2l0-0.1l0,0l-0.1-0.1l-0.2-0.3l-0.2-0.9l0-0.1l0,0l-0.2-1.1l0-0.1l0,0l-0.1-1.5v0l-0.2-1.9l0,0l0,0
			l-0.2-2.3l0,0l0,0l-0.2-2.8l-0.2-2.9l0,0l0,0l-0.1-3v0l-0.1-2.8v0l0,0l-0.1-2.5l0,0l0,0l0-2.2v0v-3.5l0-1.2v0v-0.9l0.1-0.5
			l0.4-0.7l0.1-0.1l0-0.1l0.6-0.6l0.1-0.1l0.3-0.2l0.9-0.3l0.1,0l0,0l1.2-0.2l0.1,0l0,0L354.6-103.2L354.6-103.2L354.6-103.2z"/>
	</g>
	<g transform="matrix(1, 0, 0, 1, -283.6346, 125.7362)">
		<g transform="matrix(1, 0, 0, 1, 52.375, -43.875)">
			<path class="st0" d="M378.4-67.1L378.4-67.1L378.4-67.1l0.1,0.2l0.2,0.4l0,0.9l0,0l-0.3,0.6l-0.6,0.3l-0.6-0.3l-0.3-0.6l0,0
				l0-0.9l0.2-0.4l0.1-0.2l0,0l0,0l0.6-0.2L378.4-67.1z"/>
		</g>
		<g transform="matrix(1, 0, 0, 1, 52.875, -25)">
			<path class="st0" d="M378.2-74.5L378.2-74.5L378.2-74.5l0.1,0.2l0.2,0.4l0.7,4.3l0.3,1.3l0,0l0,0l0.3,1.4l0,0.1l0,0l0.1,1.4
				l0.2,1.2l0,0l0,0l0.2,1.3l0,0l0,0l0.1,1.2l0,0l0,0l0.1,1.1l0,0l0,0l0,0.8l0,0.1v0l0,0.7l0,0l0,0.3l-0.1,0.4l-0.2,0.2l-0.1,0.1
				l-0.1,0l0,0.1l-0.5,0.2l-0.5-0.2l0-0.1l-0.1,0l-0.1-0.1l-0.2-0.2l-0.1-0.4l0-0.3l0,0l0-0.7l0-0.8l-0.1-1.1l-0.1-1.2l-0.2-1.3
				l-0.2-1.3l0-0.1l0,0l-0.1-1.4l-0.3-1.3l0,0l0,0l-0.3-1.4l0,0l0,0l-0.7-4.3l0-0.2l0.3-0.7l0.7-0.3L378.2-74.5z"/>
		</g>
	</g>
	<g transform="matrix(1, 0, 0, 1, -284.2342, 126.9468)">
		<g transform="matrix(1, 0, 0, 1, 66.875, -30.25)">
			<path class="st0" d="M372.5-70.7l3.1,2.7l0,0.1l0.5-0.8l0.2-0.2l0-0.1l0.9-0.8l0.1,0l0.1-0.1l1-0.5l0.2,0l0.1-0.1l0.9-0.2l0.3,0
				h0.9h0l0.7,0l0.7,0.3l0,0.1l0.1,0l0.6,0.9l0.1,0.2l0.1,0.1l0.5,1.4l0,0.1l0,0l0.3,1.7l0,0l0,0l0.3,1.9l0,0.1l0,0l0.2,2.1l0.5,1.9
				l0,0l0,0l0.5,2.1l0.5,1.7l0.7,1.6l0.7,1.2l0.7,0.9l0.7,0.6l0.8,0.3l0.4,0.3l0.1,0.5l-0.2,0.6l-0.6,0.2l0,0l-1,0l-0.1,0l-0.4-0.1
				l-0.9-0.6l-0.1-0.1l-0.1-0.1l-0.9-1l0-0.1l-0.1-0.1l-0.8-1.4l0-0.1l0,0l-0.7-1.7l0-0.1l0,0l-0.5-1.8l0-0.1l0,0l-0.5-2.1v0
				l-0.5-1.9l0-0.2l0,0l-0.2-2.1l-0.3-1.9l-0.3-1.6l-0.4-1.2l-0.2-0.3l-0.1,0h0h-0.7l-0.6,0.2l-0.8,0.4l-0.7,0.6l-0.7,1.1l-0.5,0.8
				l0.3,1l0,0.1l0,0l0.2,1.5l0,0.2l0,0l0,1.4v0l0,0l0,1.2v0v1.1v0l0,0.8l0,0l-0.2,0.5l-0.4,0.5l0,0l0,0.1l-0.3,0.4l-0.2,0.1
				l-0.1,0.1l-0.4,0.3l-0.3,0.1l-0.1,0.1l-0.3,0l-0.1,0l-0.1,0l-0.3,0l-0.2-0.1l-0.3-0.1l-0.3-0.2l0,0l0,0l-0.3-0.6l-0.1-0.9l0-0.1
				v-1.2l0-1.5l-0.1-1.5l0,0l0-0.3l0.5-1.7l0,0l0-0.1l0.5-1.4l-0.4-0.9l-2.9-2.6l0,0l0,0l-0.3-0.7l0.3-0.7l0.7-0.3L372.5-70.7z
				 M375.2-58.5L375.2-58.5v-0.1V-58.5z"/>
		</g>
	</g>
	<g transform="matrix(1.1024, 0, 0, 1.1024, -490.0716, 136.5484)">
		<path class="st0" d="M466.4-123.9l0.4,0.1l0,0l0.1,0l0.5,0.1l0.1,0.1l0.1,0l0.1,0.1l0.1,0.1l0,0.1l0.1,0.1l0.3,0.9l0,0.2l-0.1,0.4
			l-0.4,0.1l-0.3-0.1L467-122l-0.2,0l-0.1,0l0,0l-0.1,0l0,0.1l-0.1,0.7l0,0l-0.1,1.1l0,1.8l0,2.5l0,3.2l0,0v0l0,3.5l0,0v0l-0.1,3.9
			l-0.1,4l0,0l0,0L466-97l-0.2,3.8l0,0l0,0.1l-0.5,3l0,0l-0.4,2.6l0,0l0,0.1l-0.5,2.2l0,0l0,0.1l-0.7,1.6h0l-0.6,1.4l-0.2,0.3l0,0.1
			l-0.6,0.5l-0.6,0.2h-0.5l-0.1,0l-0.5-0.1l-0.1-0.1l-0.2-0.1l-0.6-0.4l-0.1-0.1l-0.2-0.1l-0.6-0.8l0-0.1l-0.1-0.1l-0.5-1.5l0,0l0,0
			l-0.6-1.9l0,0l0,0l-0.6-2.2l0,0l0,0l-0.5-2.6l-0.8-2.8l0,0l0,0l-0.8-3.1v0l0,0l-0.9-3.3v0l-0.9-3.1l0,0l0,0l-0.8-2.9l-0.9-2.6l0,0
			l0,0l-0.8-2.2v0l-0.7-1.8l-0.6-1.4l-0.2-0.4l-0.1,0.2l-0.4,0.8l-0.4,1l-0.3,1.3l0,0v0l-0.4,1.5l-0.3,2l0,0l-0.3,2.4l-0.1,2.7
			l0,3.1v0v0l0,3.2l0,3.2l0,2.8l0,0v0l0,2.5l0,0l0,0l-0.1,2.3l0,0l0,0l-0.1,1.8l0,0l0,0.1l-0.2,1.7l-0.4,4.4l-0.2,0.4l-0.1,0.2l0,0
			l0,0l-0.6,0.2l-0.6-0.3l-0.3-0.6l0-0.1l0.4-4.4l0,0l0,0l0.2-1.7l0.1-1.7l0-2.2l0-2.5v0l0,0l0-2.8l0-3.2l0-3.2v0v0l0-3.1l0,0l0,0
			l0.1-2.8l0,0l0-0.1l0.3-2.4v0l0.3-2.1l0,0l0-0.1l0.4-1.6l0,0l0.3-1.4l0,0l0-0.1l0.5-1.2l0,0l0,0l0.4-0.9l0,0l0,0l0.4-0.6l0.1-0.1
			l0-0.1l0.3-0.4l0.1,0l0.2-0.2l0.2-0.1l0.5-0.1h0.1l0.2,0l0.1,0l0.4,0.2l0.1,0.1l0.4,0.4l0,0.1l0.1,0.1l0.5,1l0,0l0,0l0.6,1.5l0,0
			l0,0l0.7,1.9l0,0l0,0l0.8,2.2v0l1,2.6l0,0.1l0,0l0.8,3l0,0l0,0l0.9,3.1l0,0l0,0l0.9,3.3l0,0l0,0l0.8,3.1l0,0l0.8,2.8l0,0.1l0,0
			l0.5,2.6l0.6,2.2l0.6,1.9l0.5,1.3l0.4,0.5l0.4,0.2l0.2,0.1h0.1l0.2-0.1l0.5-1.2l0,0l0.6-1.5l0.5-2.1l0.4-2.6l0,0l0.4-2.9l0.2-3.7
			l0,0v0l0.2-4l0-4l0,0v0l0.1-3.9l0-3.5v0l0,0l0-3.2l0,0l0-2.5l0,0l0-1.9v0l0-0.1l0.1-1.2l0,0v0l0.1-0.8l0,0l0-0.1l0.1-0.5l0.2-0.2
			l0.1-0.2l0.2-0.2l0.1-0.1l0.4-0.2l0.3-0.1l0.3,0L466.4-123.9z"/>
	</g>
	<g transform="matrix(1.2678, 0, 0, 1.2678, -148.1216, 59.9764)">
		<path class="st0" d="M271.2-43.4L271.2-43.4L271.2-43.4l0.1,0.2l0.2,0.4l0.2,2.4l0.4,1.8l0,0.1l0,0l0.3,2.2l0,0l0,0l0.2,2.5l0,0.1
			l0,0l0,2.6l0,0l0,0l0,2.9l0,3v0l0,0l0,2.8v0v2.5l0,1.9l0,1.3l0,0.3l0.3,0l0.5,0l0.9-0.5l1.3-1.3l1.7-2.1l1.9-2.5l1.8-2.8l1.9-3.1
			h0l1.9-3l0,0l0,0l2-2.9l0,0l0,0l1.7-2.4v0l1.4-2l0,0l0,0l1.1-1.4l0,0l0,0l0.6-0.7l0.3-0.4l0.1-0.1l0-0.1l0.1,0l0.2-0.2l0.6-0.1
			l0.8,0.3l0.3,0.8l-0.1,0.6l-0.3,0.5l-0.1,0.1l0,0.1l-0.6,0.8l0,0l-1.1,1.4l-1.4,1.9l0,0l-1.7,2.4l-2,2.8l-1.9,2.9l0,0l-1.9,3.1
			l0,0l0,0l-1.9,2.8l0,0l0,0l-1.9,2.5l0,0l0,0l-1.8,2.1l-0.1,0l0,0.1l-1.5,1.4l-0.1,0l-0.2,0.1l-1.2,0.6l-0.4,0.1l0,0l-0.8,0l0,0
			l-0.1,0l-0.7-0.1l-0.2-0.1l-0.3-0.1l-0.5-0.4l0,0l0,0l-0.3-0.6l-0.1-0.8l0-0.1l0,0v0l0-1.4l0-1.9v-2.5v0l0-2.8l0,0v0l0-3l0-2.9
			l0,0l0-2.6l-0.2-2.5l-0.3-2.1l-0.3-1.8l0-0.1l0,0l-0.1-2.4l0,0l0.3-0.6l0.6-0.3L271.2-43.4z"/>
		<g transform="matrix(1, 0, 0, 1, 24.25, 20.625)">
			<path class="st0" d="M260.7-52.3L260.7-52.3L260.7-52.3l0.1,0.2l0.2,0.4l0.5,4.1l0.5,2.2l0.7,2.1l0,0l0.8,2.3l0.8,2l0.9,1.9v0
				l0.9,1.7l0.8,1.2l0,0l0,0l0.6,1.1l0.6,0.7l0.5,0.5l0.6,0.4v0h0l0.3,0.3l0.1,0.3l0,0.2l-0.2,0.3l-0.3,0.2l-0.5,0.1l-0.1,0
				l-0.8-0.1l-0.2-0.1l-0.2-0.1l-0.7-0.6l0,0l0,0l-0.7-0.8l0-0.1l-0.1-0.1l-0.7-1.2l0,0l-0.8-1.3l0,0l0,0l-0.9-1.7l0,0l0,0l-1-1.9
				l0-0.1l0,0l-0.8-2.1l0,0l0,0l-0.8-2.3l0,0l0,0l-0.7-2.2l0-0.1l0,0l-0.5-2.3l0-0.1l0,0l-0.5-4.2l0-0.1l0.3-0.7l0.7-0.3L260.7-52.3
				z"/>
		</g>
	</g>
	<g transform="matrix(1, 0, 0, 1, -136.4136, 78.9006)">
		<g transform="matrix(1, 0, 0, 1, 63, 21.25)">
			<path class="st0" d="M306.7-77.7l1.3,0l0.7,0.3l0,0l0,0l1.3,1.5l0.5-0.2l0.8,0.3l0.3,0.8v0l0,0.4v0.4l0,0l0.3,0.7l-0.3,0.7l0,0
				l0,0.4v0l0,0l0,1.6l0,2.1v0v0l0,2.1l0.4,2.1l0.5,2l0.7,1.7l0.7,1.3l0.7,1l0,0l0.5,0.7l0.4,0.4l0.2,0.4l-0.4,0.5l-0.6,0.2l-0.2,0
				l-0.5-0.2l-0.7-0.5l0-0.1l-0.1,0l-0.9-1l0-0.1l-0.1-0.1l-0.8-1.4l0-0.1l0-0.1l-0.7-1.9l0-0.1l0,0l-0.5-2.1l0-0.1l0,0l-0.3-1.5
				l-0.7,2.1l0,0l0,0l-0.8,2.1l-0.1,0.1l0,0.1l-1,1.6l-0.1,0.1l0,0.1l-1.1,1.3l-0.1,0l-0.3,0.2l-1,0.4l-0.4,0.1h-1l-0.8,0h0
				l-0.4-0.1l-0.9-0.4l-0.3-0.3l-0.1,0l-0.7-0.9l0-0.1l-0.1-0.1l-0.6-1.1l-0.1-0.5v-1.6v0l0-1.9l0,0l0-1.9h0l0-0.1l0.1-2.1l0,0
				l0-0.2l0.5-2l0,0l0-0.1l0.8-1.8l0,0l0-0.1l1-1.7l0.2-0.2l0-0.1l1.6-1.3l0,0l0,0l1.3-1l0.3-0.1l0.2-0.1l1.4-0.2L306.7-77.7
				L306.7-77.7L306.7-77.7z M306.7-75.7l-1,0.2l-1.1,0.8l-1.4,1.2l-0.8,1.5l-0.7,1.7l-0.5,1.8l-0.1,2l0,1.9l0,0l0,0l0,1.9v0v1.4
				l0.5,0.8l0.5,0.6l0.4,0.2l0.5,0h0.8l0.5-0.2l0.9-1l0.9-1.4l0.8-2l0.8-2.1l0.6-2.3l0.5-2.2l0,0l0,0l0.4-1.8l0.1-1.1l-1.8-2
				L306.7-75.7z"/>
		</g>
	</g>
	<g transform="matrix(1, 0, 0, 1, -135.1029, 84.537)">
		<g transform="matrix(1, 0, 0, 1, 82.25, 14.375)">
			<path class="st0" d="M301.7-76.5l0.3,0l0.4,0.2l0.3,0.1l0,0l0,0l0.2,0.5l0.1,0.2l0,2.5v0l-0.3,0.7l-0.7,0.3l0,0v1.6v0l0,1.6
				l0.2,1.6l0.7,1.6l0.8,1.5l0.9,1.2l0.9,0.9l0.9,0.5l0.8,0.2l0.9,0.1l0.8-0.2l0.8-0.9l0.2-0.3l0-3l0-3.1l0,0l0,0L310-71l0-1.9l0,0
				l0-0.1l0.1-1l0.2-0.4l0.1-0.2l0,0l0,0l0.7-0.3l0,0l0.1,0l0,0l0.2,0l0.1,0l0.2,0.1l0.2,0.1l0.4,0.3l0,0l0,0l0.3,0.3l0,0.1l0.2,0.2
				l0.3,0.7l0.1,0.4l0,0l0,1l0,1.2l0,1.5v0l0,0.1l-0.2,1.7l0,0l0,0.1l-0.5,1.9l0,0l0,0.1l-0.8,1.7l0,1.1v0v7.9v0l-0.1,4l0,0l0,0
				l-0.2,3.7l0,0l0,0.1l-0.4,3.5l0,0l0,0.1l-0.6,3.3l0,0l0,0.1l-0.8,2.7l0,0l0,0.1l-1.1,2.4l-0.1,0.1l0,0.1l-1.2,1.9l-0.1,0l0,0.1
				l-1.4,1.4l-0.1,0l-0.2,0.2l-1.5,0.8l-0.2,0l-0.1,0.1l-1.3,0.3l-0.2,0h-1.3l-0.5-0.1l-1.2-0.6l-0.3-0.3l-0.1,0l-1-1.5l0-0.1
				l-0.1-0.1l-1-2l0-0.1l0-0.1l-0.7-2.5l0-0.2l0,0l-0.3-2.9l0-0.1v0l0-3.1v0l0-0.1l0.4-3l0-0.1l0.1-0.3l1.4-2.7l0.1-0.1l0-0.1
				l1.9-2.3l0.1,0l0-0.1l2.1-1.7l0.1,0l0-0.1l2.2-1.1l0.1,0l0,0l1.9-0.6l0.1,0l0.3,0.1l0.1,0.3l-0.2,0.4l-1.7,1.1l-2,1.4l-1.8,1.8
				l-1.6,2.3l-1.3,2.5l-0.4,2.8l0,2.9l0.3,2.7l0.7,2.3l1,1.9l0.9,1.2l0.7,0.4h0.9l1-0.2l1.2-0.6l1.2-1.2l1.1-1.7l1-2.3l0.8-2.6
				l0.5-3.2l0.4-3.5l0.2-3.7l0.1-4v-5.8l-0.3,0.2l-1.2,0.3l-0.2,0l0,0l-1.1,0.1l-0.1,0l-0.2,0l-1.1-0.2l-0.1,0l-0.2,0l-1.2-0.6
				l-0.1-0.1l-0.1,0l-1.1-1l0-0.1l-0.1,0l-1-1.3l0-0.1l-0.1-0.1l-0.9-1.6l0-0.1l0-0.1l-0.7-1.7l0-0.2l0-0.1l-0.3-1.8l0-0.2l0,0
				l0-1.6v0v-1.7l0-0.1l0.1-1.6l0,0l0-0.2l0.4-1.1l0.2-0.8l0.2-0.3l0.1-0.2l0.1,0l0.1-0.1L301.7-76.5L301.7-76.5z"/>
		</g>
	</g>
	<g transform="matrix(1.1596, 0, 0, 1.1596, -8.0269, 100.3031)">
		<path class="st0" d="M239.9-65.2l0.5,0l0,0h0l0.4,0l0,0h0l0.5,0l0,0l0.2,0l0.4,0.1l0,0l0,0l0.4,0.2l0,0l0,0l1.6,0.8l0,0.1l0.1,0.1
			l0.2,0.5l-0.2,0.5l-0.5,0.2l-0.3-0.1l-1.6-0.6l-0.4-0.1l-0.3,0l-0.4,0l0,0h0l-0.4,0h0h0l-0.5,0l-0.3,0l-0.3,0.2l-0.5,0.4l-0.4,0.3
			l-0.3,0.4l-0.2,0.4l-0.1,0.4l0,0.3l0,0.4l0,0l0,0l0,0.5l0,0.3l0.1,0.2l0.4,0.3l0.4,0.3l0.5,0.2l0,0l0,0l0.6,0.3l0.7,0.2l0.6,0.2
			l0.5,0.1l0.7,0l0,0l0,0l0.6,0l0,0l0.1,0l0.5,0.1l0,0l0.1,0l0.4,0.2l0.1,0l0.1,0l0.4,0.2l0,0.1l0.1,0l0.3,0.2l0,0.1l0.2,0.3
			l0.1,0.3l0.1,0.2l0.1,0.4v0l0,0l0,0.1l0.1,0.4v0.6l0,0v0.3l0,0.3v0l0,0l0,0.4v0l-0.1,0.5l-0.2,0.4l0,0l0,0l-0.4,0.5l-0.1,0l0,0.1
			l-0.4,0.4l-0.4,0.6l-0.1,0l0,0.1l-0.5,0.4l0,0l0,0l-0.6,0.4l-0.1,0l0,0l-0.5,0.3l-0.1,0l-0.1,0l-0.5,0.2l-0.2,0l0,0l-0.6,0.1
			l-0.1,0h0l-0.4,0h0l0,0l-0.6,0h0l-0.2,0l-0.6-0.2l0,0l0,0l-0.6-0.2l0,0l0,0l-0.7-0.3l-0.1-0.1l-0.1,0l-0.5-0.4l0,0l0,0l-0.4-0.3
			l0,0l0,0l-0.3-0.3l-0.1-0.2l-0.1-0.1l-0.1-0.2l-0.1-0.1l-0.2-0.5l0.2-0.6l0,0l0,0l0.2-0.1l0.4-0.2l0.2,0l0,0l0.7,0.3l0.1,0.1
			l0.1,0.1l0,0.1l0.2,0.2l0.3,0.3l0.4,0.3l0.6,0.2l0.5,0.2L240-51l0.4,0l0,0h0l0.4,0l0.5-0.1l0.3-0.1l0.5-0.3l0.5-0.3l0.4-0.3
			l0.4-0.6l0.1,0l0-0.1l0.4-0.4l0.3-0.4l0.1-0.2l0-0.1l0,0v0l0-0.3v-0.7l0-0.1l-0.1-0.4l0,0l0,0l0-0.1l0-0.1l0-0.1l0-0.1l0,0
			l-0.2-0.1l-0.3-0.1l-0.4-0.1l-0.6,0l-0.7,0h0l-0.1,0l-0.6-0.1l0,0l-0.1,0l-0.7-0.1l0,0l0,0l-0.8-0.2l-0.1,0l-0.1,0l-0.7-0.3
			l-0.5-0.2l-0.1-0.1l-0.1,0l-0.5-0.4l0,0l0,0l-0.6-0.4l0-0.1l-0.2-0.3l-0.3-0.6l-0.1-0.2l0-0.1l-0.1-0.5l0-0.1l0,0v0l0-0.6l0,0v0
			l0-0.5l0,0l0-0.2l0.1-0.5l0,0l0-0.1l0.2-0.5l0,0l0-0.1l0.3-0.5l0,0l0,0l0.4-0.6l0.1-0.1l0.1-0.1l0.5-0.4l0,0l0,0l0.5-0.4l0,0l0,0
			l0.5-0.4l0.3-0.1l0.2-0.1l0.6-0.1L239.9-65.2L239.9-65.2z"/>
	</g>
	<g transform="matrix(1, 0, 0, 1, 22.9137, 100.3748)">
		<path class="st0" d="M265.7-76l1.1,0h0h0l0.8,0l0,0l0.1,0l1.8,0.4l0.3,0.2l0.2,0.1l0,0l0,0l0.2,0.6l-0.1,0.1l0.1,0.2l0,0.2
			l-0.1,0.5l0,0.9l0,0l0,0.2l0,0l0,0.4v0l0,0.1l-0.1,1.2l0,0l0,0.2l-0.2,0.7l0,0.3l0,1.7l0,0v1.4l0.3,1l0.5,0.9l0.7,0.7l0.9,0.4
			l1.4,0.1l1.7,0l1.9-0.5l2.2-0.8l0.1,0l0,0l2.3-0.7l0.1,0l0.3,0.1l0.1,0.3l-0.1,0.3l-1.6,1.8l-0.1,0l-0.2,0.2l-2.1,1.3l-0.2,0
			l-0.1,0.1l-2.1,0.7l-0.4,0.1l0,0l-1.9,0h0l-0.1,0l-1.7-0.1l-0.1,0l-0.4-0.1l-1.4-0.6l-0.2-0.2l-0.1-0.1l-1-0.9l0-0.1l-0.2-0.2
			l0-0.1l-0.2,0.7l0,0l0,0.1l-0.6,1.4l0,0.1l0,0.1l-0.7,1.2l-0.1,0.1l0,0.1l-0.7,0.8l-0.1,0l0,0.1l-0.8,0.6l-0.7,0.3l0,0l-0.7,0
			l-0.8,0h0l-0.4-0.1l-0.7-0.3l-0.1-0.1l-0.1,0l-0.8-0.6l-0.1-0.1l-0.2-0.1l-0.6-0.9l0,0l0,0l-0.6-0.9l0-0.2l-0.1-0.1l-0.4-1.2
			l-0.1-0.3l0,0l-0.1-1.5l0-0.1v0l0-1.6v0l0-0.2l0.2-1.6l0,0l0-0.1l0.5-1.6l0-0.1l0-0.1l0.8-1.7l0,0l0,0l0.8-1.5l0.1-0.1l0-0.1
			l0.9-1.1l0.1,0l0-0.1l1-0.9l0.1,0l0.1-0.1l1-0.6l0.1,0l0.1-0.1l1.1-0.4L265.7-76L265.7-76z M266.8-73.9L266.8-73.9L266.8-73.9
			l-0.9,0l-0.8,0.3l-0.8,0.5l-0.8,0.8l-0.8,1l-0.7,1.4l-0.7,1.6l-0.4,1.5l-0.2,1.5l0,1.5l0.1,1.3l0.3,0.9l0.5,0.8l0.5,0.7l0.5,0.4
			l0.4,0.2l0.6,0l0.3,0l0.3-0.3l0.6-0.7l0.6-1.1l0.5-1.3l0.4-1.6l0.4-1.7l0.3-1.6l0-1.7l0,0l0-0.1l0.1-1.6l0,0l0-0.1l0.2-1.4
			l0.1-0.9l0,0l0-0.1l0-0.1L266.8-73.9z"/>
	</g>
	<g transform="matrix(1, 0, 0, 1, 47.0139, 101.5744)">
		<path class="st0" d="M268.2-78.8l1.4,0h1.6l0.3,0l1.3,0.4l0.2,0.1l0.2,0.1l1,0.8l0.1,0.1l0.1,0.1l0.7,1l0,0.1l0.1,0.1l0.5,1.3
			l0,0.2l0,0l0.2,1.2l0,0.1l0,0l0,0.9l0,0.1l0,0.1l0,0.3l0,1.3l0,0l-0.1,0.3l-0.4,1.2l-0.1,0.1l0,0.1l-1,1.1l-0.1,0l0,0.1l-1,0.9
			l-0.1,0l0,0l-1,0.5l-0.1,0l-0.1,0l-1,0.2l-0.1,0h-0.5l-0.3,0.1l-0.2,0l-0.4-0.2l-0.1-0.2l-0.1-0.1l-0.1-0.4l0-0.1l0,0l-0.1-0.8
			l0-0.1l0,0l0-1l0,0l0-0.2l0.2-1l0.2-0.3l0.1-0.1l1-1l0.1,0l0-0.1l1.1-0.9l0.1,0l0.1-0.1l1.3-0.6l0.2,0l0.1,0l0.5-0.1l0-0.2
			l-0.2-1.1l-0.4-1.1l-0.6-0.8l-0.8-0.6l-1-0.3h-1.5l-1.3,0l-1.1,0.3l-1.1,0.6l-1,1l-1,1.4l-0.9,1.7l-0.8,2l-0.7,2.1v0.7v0l0,2.1
			l0,0l0,0.2l-0.4,2l0,0l0,0.1l-0.6,1.5l0,0l0,0.1l-0.7,1.3l0,0l0,0.1l-0.6,0.8l0,0l0,0l-0.3,0.3l0,0l-0.1,0.2l-0.1,0.1l0,0l0,0
			l-0.1,0l0,0l-0.3,0.1l-0.1,0.1l-0.5-0.2l0,0l0,0l-0.1-0.2l-0.2-0.3l0-0.5l0-0.1v0l0-1.2v0l0-0.2l0.5-1.6l0,0l0,0l0.7-2l0.6-2l0,0
			l0,0l0.5-1.4v-1.5l-0.1-1.7l-0.3-1.5l-0.4-1.3l-0.1-0.2l-0.1,0.2l-0.7,0.3l-0.7-0.3l0,0l0,0l-0.1-0.2l-0.2-0.4l-0.2-1.8l0-0.1
			l0.3-0.7l0.7-0.3l0,0l0.1,0l0.6,0l0.7,0.3l0,0l0,0l0.7,0.9l0,0l0,0l0.8,1.1l0,0.1l0.1,0.1l0.5,1.5l0,0.1l0,0l0,0.2l0.1-0.2l0,0
			l0-0.1l0.9-1.8l0-0.1l0-0.1l1.1-1.6l0.1,0l0-0.1l1.1-1.1l0.1,0l0.1-0.1l1.3-0.7l0.1,0l0.1-0.1l1.3-0.4L268.2-78.8L268.2-78.8z
			 M273.8-71.1l-1.1,0.6l-1.1,0.8l-0.9,0.8l-0.2,0.6l0,0.8l0,0l0,0l-0.1,0.7h0.1l0.8-0.3l0.7-0.6l0.9-0.9l0.7-1l0.2-1l0-0.6
			L273.8-71.1z"/>
	</g>
</g>
<line class="st1" x1="-12.9" y1="41.1" x2="334" y2="41.1"/>
</svg>
